<svg width="20" height="19" viewBox="0 0 20 19" fill="none" xmlns="http://www.w3.org/2000/svg">
<path d="M15.2699 5.46947V12.5405C15.2699 12.8057 15.1594 13.0488 14.9826 13.2256C14.7837 13.4244 14.5407 13.5349 14.2755 13.5349C13.7231 13.557 13.259 13.093 13.2811 12.5405L13.259 7.87806L6.49734 14.6398C6.09959 15.0375 5.48087 15.0375 5.08312 14.6398C4.70747 14.2641 4.68538 13.6233 5.08312 13.2256L11.8448 6.46384H7.20444C6.65202 6.48594 6.18798 6.0219 6.21008 5.46947C6.18798 4.91705 6.65202 4.45301 7.20444 4.4751H14.2755C14.8279 4.45301 15.292 4.91705 15.2699 5.46947Z" fill="#A64D79"/>
</svg>
