<svg width="60" height="60" viewBox="0 0 60 60" fill="none" xmlns="http://www.w3.org/2000/svg">
<rect x="0.5" y="0.5" width="59" height="59" rx="29.5" stroke="#E7E7E7"/>
<path d="M26.6667 34.0202C32.0891 34.0202 36.6667 34.9124 36.6667 38.3583C36.6667 41.8041 32.0598 42.6666 26.6667 42.6666C21.2444 42.6666 16.6667 41.773 16.6667 38.3285C16.6667 34.8827 21.2724 34.0202 26.6667 34.0202ZM39.332 23.9999C39.9937 23.9999 40.5307 24.5458 40.5307 25.2154V26.7837H42.1348C42.7951 26.7837 43.3334 27.3297 43.3334 27.9992C43.3334 28.6688 42.7951 29.2147 42.1348 29.2147H40.5307V30.7844C40.5307 31.454 39.9937 31.9999 39.332 31.9999C38.6718 31.9999 38.1334 31.454 38.1334 30.7844V29.2147H36.532C35.8704 29.2147 35.3334 28.6688 35.3334 27.9992C35.3334 27.3297 35.8704 26.7837 36.532 26.7837H38.1334V25.2154C38.1334 24.5458 38.6718 23.9999 39.332 23.9999ZM26.6667 17.3333C30.3395 17.3333 33.2836 20.3154 33.2836 24.0357C33.2836 27.756 30.3395 30.7382 26.6667 30.7382C22.994 30.7382 20.0499 27.756 20.0499 24.0357C20.0499 20.3154 22.994 17.3333 26.6667 17.3333Z" fill="black"/>
</svg>
