<svg width="14" height="14" viewBox="0 0 14 14" fill="none" xmlns="http://www.w3.org/2000/svg">
<path d="M12 0C13.0938 0 14 0.90625 14 2V12C14 13.125 13.0938 14 12 14H2C0.875 14 0 13.125 0 12V2C0 0.90625 0.875 0 2 0H12ZM10.5938 5.625C10.9375 5.28125 10.9375 4.75 10.5938 4.40625C10.25 4.0625 9.71875 4.0625 9.375 4.40625L6 7.78125L4.59375 6.40625C4.25 6.0625 3.71875 6.0625 3.375 6.40625C3.03125 6.75 3.03125 7.28125 3.375 7.625L5.375 9.625C5.71875 9.96875 6.25 9.96875 6.59375 9.625L10.5938 5.625Z" fill="#A64D79"/>
</svg>
