<svg width="500" height="558" viewBox="0 0 500 558" fill="none" xmlns="http://www.w3.org/2000/svg">
<g clip-path="url(#clip0_30_310)">
<path d="M498.457 310.231C493.016 356.118 472.014 409.485 430.049 434.048C366.655 471.105 371.959 528.086 248.244 552.862C230.196 556.56 211.8 558.296 193.377 558.039C184.362 557.878 175.366 557.143 166.445 555.838C87.805 544.382 34.8685 489.853 15.4593 424.03C-10.0936 337.458 40.9245 280.79 74.7401 246.634C108.556 212.479 133.306 106.034 254.764 80.7077C273.303 76.7678 292.236 74.9759 311.186 75.3674C354.393 76.4304 401.524 90.5755 434.149 120.129C436.59 122.347 438.972 124.644 441.296 127.02C486.609 173.445 505.868 247.66 498.457 310.231Z" fill="#83CD20"/>
<path d="M498.457 310.231C493.016 356.118 472.014 409.485 430.049 434.048C366.655 471.105 371.959 528.086 248.244 552.862C230.196 556.56 211.8 558.296 193.377 558.039C184.362 557.878 175.366 557.143 166.445 555.838C87.805 544.382 34.8685 489.853 15.4593 424.03C-10.0936 337.458 40.9245 280.79 74.7401 246.634C108.556 212.479 133.306 106.034 254.764 80.7077C273.303 76.7678 292.236 74.9759 311.186 75.3674C354.393 76.4304 401.524 90.5755 434.149 120.129C436.59 122.347 438.972 124.644 441.296 127.02C486.609 173.445 505.868 247.66 498.457 310.231Z" fill="white"/>
<g opacity="0.15">
<path d="M335.962 86.9587C330.019 91.0734 314.045 93.8374 314.032 93.8374C314.02 93.8374 315.399 82.7814 315.575 82.0936C317.631 74.1268 326.282 59.9316 335.51 59.3688C342.143 58.9686 347.021 64.7217 346.795 71.0876C346.569 77.4536 341.027 83.4193 335.962 86.9587Z" fill="#D9D9D9"/>
<path d="M291.965 287.453C291.965 287.828 291.965 288.178 291.965 288.554L286.448 292.068C286.448 290.567 286.448 289.054 286.448 287.478C286.448 283.051 286.536 278.311 286.661 273.445C282.085 272.593 277.563 271.469 273.12 270.081C269.471 275.997 258.751 284.201 257.36 285.252C259.754 288.904 262.137 292.418 264.419 295.72C265.998 297.984 267.528 300.147 269.008 302.236L263.002 303.412C261.974 301.911 260.945 300.372 259.892 298.772C257.385 295.082 254.877 291.08 252.307 286.953C250.677 287.641 237.261 293.206 230.49 293.018C224.334 292.856 216.535 290.93 212.748 285.639C208.962 280.349 209.965 272.983 215.745 269.693C223.77 265.116 238.803 272.27 244.884 277.823C245.248 278.148 248.746 282.138 250.915 284.689C249.874 283.001 248.834 281.362 247.78 279.611C245.674 276.147 243.68 272.632 241.511 268.868L238.527 263.24C237.499 261.376 236.646 259.288 235.681 257.287C233.537 252.622 231.606 247.794 229.763 242.891C226.729 244.73 215.833 251.083 209.702 251.846C203.57 252.609 195.596 251.846 191.045 247.231C186.493 242.616 186.368 235.137 191.584 230.973C198.818 225.245 214.767 230.047 221.676 234.612C222.115 234.887 226.691 238.727 229.123 240.865C228.033 237.901 226.942 234.95 225.939 231.923C223.055 223.168 220.409 214.239 217.726 205.334C216.89 202.607 216.054 199.889 215.218 197.179C214.153 197.842 201.426 205.684 194.493 206.534C188.374 207.31 180.375 206.534 175.836 201.919C171.297 197.304 171.159 189.825 176.375 185.661C183.61 179.933 199.558 184.735 206.467 189.3C206.981 189.65 213.526 195.166 215.118 196.654C213.263 190.663 211.357 184.723 209.25 178.945C206.392 171.16 203.029 163.569 199.182 156.22C198.681 156.52 185.39 164.762 178.344 165.637C172.225 166.4 164.225 165.637 159.674 161.023C155.123 156.408 154.997 148.928 160.213 144.764C167.448 139.036 183.396 143.838 190.305 148.403C190.832 148.766 197.828 154.657 199.082 155.907C198.869 155.482 198.681 155.019 198.455 154.657C194.426 147.351 189.756 140.416 184.5 133.933C181.654 130.306 178.72 127.017 175.723 123.928C173.403 125.716 162.721 133.77 156.464 135.259C150.471 136.684 142.434 136.847 137.406 132.757C132.378 128.668 131.425 121.251 136.152 116.586C142.722 110.095 159.097 113.122 166.42 116.911C166.821 117.111 170.633 119.65 173.391 121.539C172.049 120.138 170.683 118.675 169.379 117.362C164.451 112.359 159.649 108.182 155.361 104.467C152.853 102.378 150.647 100.54 148.503 98.8391C145.318 99.4019 132.416 101.541 126.285 100.015C120.154 98.4889 113.107 95.012 110.549 88.9963C107.991 82.9805 110.549 76.0393 116.919 74.0633C125.695 71.3243 138.873 81.5673 143.625 88.2584C144.039 88.8462 149.405 98.664 149.242 98.7015H149.054C151.136 100.29 153.355 102.028 155.75 103.979C160.125 107.606 165.04 111.733 170.081 116.599C175.575 121.775 180.758 127.271 185.603 133.057C191.075 139.499 195.955 146.418 200.185 153.731L200.323 154.006C199.746 151.367 198.405 143.938 198.367 143.35C197.828 135.146 201.615 118.962 210.203 115.561C216.385 113.059 222.817 117.061 224.56 123.19C226.302 129.318 223.005 136.584 219.243 141.487C215.056 147.027 201.815 154.181 200.762 154.757C204.883 162.299 208.493 170.109 211.57 178.132C213.388 182.797 215.081 187.562 216.711 192.352C216.297 190.051 215.933 187.987 215.921 187.699C215.382 179.495 219.168 163.311 227.757 159.909C233.938 157.408 240.37 161.41 242.113 167.538C243.856 173.667 240.558 181.071 236.797 185.973C233.035 190.876 221.864 197.229 218.88 198.918C219.494 200.769 220.133 202.595 220.723 204.446C223.594 213.301 226.428 222.155 229.5 230.71C230.565 233.737 231.731 236.676 232.897 239.627C232.521 237.589 232.233 235.875 232.208 235.6C231.669 227.396 235.455 211.212 244.044 207.81C250.225 205.371 256.657 209.311 258.4 215.439C260.143 221.568 256.858 229.022 253.097 233.924C249.335 238.827 239.304 244.617 235.719 246.568C236.972 249.558 238.226 252.547 239.643 255.323C240.621 257.237 241.436 259.15 242.527 261.026C243.618 262.902 244.608 264.778 245.624 266.592C247.73 270.056 249.874 273.646 252.006 276.972C253.473 279.299 254.915 281.487 256.356 283.701C255.253 280.687 253.209 274.771 253.097 274.246C251.805 267.139 252.353 259.821 254.689 252.984C254.509 252.196 254.404 251.392 254.375 250.583C254.15 244.23 259.052 238.502 265.66 238.939C274.875 239.54 283.452 253.785 285.458 261.764C285.583 262.227 286.298 267.48 286.712 270.794C286.787 268.818 286.824 266.879 286.912 264.841C287.075 260.801 287.338 256.761 287.614 252.422C287.827 250.333 288.041 248.219 288.254 246.093C288.467 243.967 288.868 241.753 289.157 239.565C289.959 234.562 291.012 229.409 292.191 224.294C288.642 224.156 276.042 223.469 270.5 220.73C264.958 217.991 258.701 212.988 257.485 206.609C256.269 200.231 260.281 193.94 266.901 193.377C276.104 192.577 286.762 205.359 289.959 212.938C290.16 213.413 291.84 219.116 292.705 222.255C293.432 219.191 294.147 216.127 294.987 213.063C297.419 204.171 300.153 195.266 302.836 186.361C303.663 183.635 304.453 180.908 305.256 178.169C304.002 178.169 288.956 177.644 282.787 174.567C277.27 171.841 270.989 166.838 269.772 160.447C268.556 154.056 272.568 147.79 279.201 147.215C288.392 146.427 299.049 159.197 302.246 166.788C302.485 167.351 304.892 175.543 305.406 177.681C307.161 171.666 308.867 165.662 310.296 159.684C312.277 151.612 313.726 143.419 314.634 135.159C314.045 135.159 298.334 134.696 292.065 131.544C286.536 128.818 280.267 123.815 279.051 117.424C277.834 111.033 281.834 104.767 288.467 104.192C297.67 103.404 308.315 116.173 311.512 123.765C311.775 124.353 314.358 133.183 314.709 134.821C314.709 134.346 314.86 133.845 314.91 133.37C315.597 125.044 315.538 116.673 314.735 108.357C314.358 103.767 313.731 99.4019 313.029 95.1746C310.108 95.3872 296.73 96.2252 290.699 94.024C284.906 91.9229 278.16 87.633 276.217 81.4172C274.274 75.2014 277.596 68.5228 284.116 67.2346C293.181 65.4336 305.168 76.9648 309.193 84.1562C309.406 84.5439 311.186 88.7587 312.44 91.8603C312.089 89.9468 311.776 87.9707 311.412 86.1573C310.045 79.3286 308.378 73.1503 306.848 67.6973C305.958 64.5957 305.093 61.8192 304.253 59.2178C301.268 57.9671 289.332 52.6267 285.069 47.9617C280.806 43.2967 276.857 36.5056 278.035 30.1021C279.214 23.6987 285.194 19.4214 291.589 21.2474C300.466 23.8237 305.77 39.5697 306.02 47.7991C306.02 48.4995 305.08 59.6555 304.93 59.593L304.742 59.5179C305.607 62.0193 306.497 64.6582 307.412 67.5973C309.055 73.0252 310.86 79.1785 312.428 86.0197C314.148 93.3591 315.437 100.792 316.289 108.282C317.277 116.669 317.517 125.128 317.004 133.558V133.858C317.994 131.357 320.979 124.403 321.267 123.853C325.354 116.711 337.466 105.305 346.506 107.194C353.014 108.557 356.199 115.385 354.268 121.464C352.337 127.542 345.491 131.869 339.648 133.97C333.091 136.272 318.082 134.958 316.891 134.846C316.157 143.411 314.851 151.918 312.979 160.31C311.913 165.2 310.697 170.102 309.406 174.993C310.334 172.841 311.174 170.928 311.312 170.678C315.399 163.536 327.511 152.118 336.551 154.019C343.071 155.382 346.243 162.211 344.312 168.276C342.381 174.342 335.535 178.695 329.693 180.783C323.85 182.872 310.986 182.034 307.588 181.721C307.086 183.597 306.585 185.473 306.071 187.337C303.563 196.316 301.055 205.259 298.824 214.114C298.046 217.228 297.394 220.367 296.73 223.419C297.545 221.518 298.247 219.917 298.385 219.667C302.472 212.525 314.584 201.119 323.624 203.008C330.131 204.371 333.316 211.199 331.385 217.278C329.454 223.356 322.609 227.683 316.766 229.784C310.923 231.886 299.3 231.035 295.275 230.76C294.686 233.962 294.097 237.163 293.67 240.278C293.432 242.416 293.043 244.455 292.931 246.619C292.818 248.782 292.592 250.871 292.429 252.959C292.266 257.012 292.065 261.176 292.003 265.128C292.003 267.88 291.927 270.494 291.915 273.133C292.655 270.019 294.234 263.953 294.423 263.465C297.382 255.786 307.625 242.679 316.841 243.179C323.486 243.542 327.661 249.82 326.671 256.111C325.68 262.402 319.549 267.73 314.133 270.631C308.152 273.821 293.708 274.821 291.902 274.934C291.79 279.199 291.815 283.451 291.965 287.453Z" fill="#D9D9D9"/>
<path d="M175.76 122.053C175.635 122.165 170.745 112.047 170.544 111.397C167.849 103.63 167.222 87.0214 174.607 81.4809C179.923 77.4913 187.145 79.6049 190.48 85.0578C193.815 90.5108 192.524 98.5276 190.242 104.243C187.559 110.934 175.773 122.04 175.76 122.053Z" fill="#D9D9D9"/>
</g>
<g opacity="0.15">
<path d="M92.5197 318.672C91.4916 322.249 86.0249 328.565 86.0249 328.577C86.0249 328.59 82.9531 323.712 82.7901 323.387C80.9971 319.535 79.806 311.056 83.2916 307.816C83.889 307.298 84.5889 306.911 85.346 306.679C86.1031 306.448 86.9004 306.378 87.6864 306.473C88.4724 306.569 89.2296 306.828 89.9088 307.234C90.5881 307.639 91.1743 308.183 91.6295 308.829C93.6482 311.506 93.3849 315.621 92.5197 318.672Z" fill="#D9D9D9"/>
<path d="M140.666 413.02L141.03 413.446L140.002 416.647L138.497 414.821C137.043 413.058 135.525 411.144 133.983 409.156C131.876 410.307 129.703 411.334 127.476 412.233C127.965 415.784 126.373 422.551 126.159 423.414C128.316 424.089 130.41 424.727 132.429 425.29C133.808 425.69 135.124 426.053 136.403 426.39L134.384 428.892L131.626 428.054C129.432 427.378 127.112 426.615 124.73 425.802C124.304 426.615 120.78 433.206 118.022 435.345C115.514 437.284 111.753 439.097 108.518 438.184C107.748 438.002 107.025 437.661 106.396 437.183C105.767 436.705 105.246 436.1 104.867 435.407C104.487 434.715 104.258 433.951 104.193 433.165C104.129 432.378 104.231 431.587 104.493 430.843C106.186 426.403 114.524 424.352 118.774 424.589C119.025 424.589 121.733 425.052 123.426 425.365C122.461 425.027 121.508 424.714 120.517 424.352C118.549 423.664 116.593 422.913 114.499 422.113L111.465 420.862C110.436 420.462 109.408 419.912 108.38 419.424C105.998 418.261 103.641 416.923 101.296 415.609C100.682 417.335 98.4248 423.414 96.2808 425.727C94.1367 428.041 90.6636 430.342 87.3285 429.967C86.5399 429.905 85.7732 429.678 85.0782 429.302C84.3832 428.925 83.7753 428.406 83.2941 427.78C82.8129 427.154 82.4691 426.434 82.285 425.666C82.1009 424.899 82.0806 424.102 82.2254 423.326C83.2285 418.686 91.1652 415.397 95.4031 414.984C95.6664 414.984 98.7383 414.984 100.418 415.047C99.0141 414.221 97.6098 413.408 96.2181 412.545C92.2058 410.044 88.2187 407.305 84.2315 404.628C82.9777 403.803 81.7239 403.003 80.5578 402.127C80.3447 402.74 77.8119 410.031 75.3544 412.62C73.1728 414.922 69.7373 417.235 66.4021 416.86C65.6136 416.798 64.8469 416.571 64.1519 416.195C63.4568 415.818 62.849 415.299 62.3678 414.673C61.8866 414.047 61.5428 413.327 61.3587 412.559C61.1745 411.792 61.1542 410.995 61.2991 410.219C62.3021 405.579 70.2388 402.29 74.4768 401.877C74.7902 401.877 79.2162 401.877 80.3321 401.977C77.6364 400.201 74.9281 398.45 72.1948 396.837C68.508 394.629 64.6797 392.666 60.7349 390.959C60.6471 391.246 58.0391 398.875 55.5189 401.514C53.3247 403.816 49.9018 406.142 46.5541 405.767C45.7653 405.703 44.9988 405.475 44.3043 405.097C43.6097 404.718 43.0027 404.199 42.5226 403.571C42.0425 402.944 41.7002 402.223 41.5177 401.454C41.3353 400.686 41.3168 399.889 41.4636 399.113C42.4666 394.473 50.4033 391.184 54.6287 390.771C54.9673 390.771 59.7193 390.771 60.5844 390.884C60.3587 390.796 60.1205 390.671 59.8948 390.571C55.9004 388.95 51.7667 387.694 47.5446 386.819C45.2125 386.306 42.9682 385.943 40.774 385.643C40.4354 387.107 38.8055 393.81 36.7993 396.437C34.7932 399.063 31.7214 401.652 28.3611 401.639C27.5709 401.664 26.7843 401.523 26.0525 401.225C25.3206 400.927 24.66 400.478 24.1135 399.908C23.567 399.338 23.147 398.66 22.8808 397.918C22.6146 397.175 22.5082 396.385 22.5684 395.599C23.0574 390.871 30.5804 386.731 34.7431 385.856C34.9688 385.856 37.326 385.581 39.0437 385.431C38.0406 385.318 37.025 385.168 36.0721 385.068C32.4862 384.705 29.1761 384.58 26.2547 384.505C24.5871 384.505 23.0825 384.505 21.6782 384.505C20.5874 385.756 16.1363 390.821 13.2024 392.209C10.2684 393.598 6.2938 394.498 3.3097 392.947C2.59545 392.607 1.96115 392.12 1.44818 391.519C0.935206 390.918 0.555098 390.216 0.332662 389.458C0.110227 388.7 0.0504601 387.904 0.157266 387.122C0.264072 386.34 0.535052 385.589 0.952515 384.918C3.57301 380.953 12.1617 380.741 16.2617 381.879C16.6128 381.966 21.9791 384.142 21.929 384.205L21.8538 384.28C23.2079 384.28 24.6623 384.205 26.2547 384.205C29.1886 384.205 32.5238 384.268 36.1097 384.568C39.9972 384.846 43.8654 385.347 47.6951 386.069C51.969 386.863 56.1646 388.03 60.2333 389.558L60.3838 389.62C59.293 388.757 56.3214 386.231 56.1082 386.018C53.1994 382.917 49.4128 375.225 51.7199 371.01C52.1248 370.332 52.6682 369.745 53.3148 369.289C53.9614 368.833 54.6968 368.518 55.4733 368.364C56.2499 368.209 57.0503 368.219 57.8228 368.393C58.5952 368.567 59.3225 368.9 59.9575 369.372C62.7159 371.286 63.719 375.288 63.8819 378.452C64.0199 382.029 61.0859 389.195 60.8477 389.708C64.9672 391.367 68.9679 393.306 72.8217 395.511C75.0786 396.762 77.3104 398.125 79.5297 399.501C78.6144 398.725 77.7994 398.012 77.6991 397.9C74.7902 394.811 70.9911 387.119 73.3107 382.967C73.7131 382.287 74.2546 381.699 74.9 381.242C75.5454 380.785 76.2801 380.469 77.0563 380.315C77.8324 380.16 78.6326 380.17 79.4044 380.345C80.1763 380.52 80.9025 380.855 81.5358 381.328C84.2942 383.242 85.2973 387.244 85.4603 390.408C85.6233 393.573 83.2159 399.788 82.5639 401.414L85.0716 403.015C89.1214 405.604 93.1587 408.218 97.1961 410.657C98.6129 411.507 100.042 412.308 101.472 413.158C100.657 412.458 99.9796 411.907 99.8792 411.77C96.9704 408.668 93.1838 400.977 95.4909 396.824C95.8946 396.146 96.4368 395.56 97.0822 395.104C97.7277 394.648 98.4621 394.333 99.2377 394.178C100.013 394.024 100.813 394.034 101.584 394.207C102.356 394.381 103.082 394.714 103.716 395.186C106.474 397.099 107.477 401.102 107.653 404.266C107.828 407.43 105.622 413.021 104.857 414.984C106.349 415.759 107.841 416.535 109.308 417.223C110.336 417.661 111.276 418.161 112.33 418.548L115.389 419.799C117.358 420.5 119.389 421.225 121.332 421.863C122.686 422.313 123.978 422.713 125.269 423.113C123.852 422.275 121.094 420.612 120.881 420.399C118.026 417.986 115.841 414.881 114.536 411.382C114.202 411.132 113.895 410.847 113.621 410.532C113.077 409.959 112.661 409.277 112.399 408.533C112.138 407.788 112.037 406.997 112.103 406.21C112.169 405.424 112.401 404.66 112.784 403.97C113.167 403.279 113.691 402.677 114.323 402.202C118.185 399.438 126.285 402.315 129.695 404.841C129.896 404.991 131.902 406.855 133.156 408.043C132.529 407.23 131.902 406.454 131.275 405.604C130.021 403.941 128.767 402.24 127.514 400.426L125.695 397.687C125.069 396.799 124.517 395.761 123.915 394.798C122.573 392.509 121.32 390.133 120.154 387.719C118.699 388.82 113.446 392.647 110.336 393.36C107.227 394.073 103.102 394.123 100.519 391.972C99.8949 391.487 99.3806 390.876 99.0092 390.179C98.6379 389.483 98.4178 388.716 98.3634 387.929C98.309 387.142 98.4214 386.352 98.6934 385.612C98.9654 384.871 99.3908 384.196 99.9419 383.63C103.352 380.303 111.778 381.929 115.539 383.917C115.778 384.042 118.323 385.768 119.69 386.731C118.988 385.281 118.26 383.817 117.596 382.316C115.652 377.989 113.834 373.562 111.966 369.109C111.402 367.759 110.825 366.408 110.248 365.057C109.734 365.457 103.591 370.147 100.117 370.948C97.0205 371.661 92.8704 371.711 90.3 369.56C89.6767 369.073 89.1627 368.462 88.7913 367.765C88.4198 367.068 88.1992 366.301 88.1436 365.513C88.0881 364.726 88.1989 363.935 88.4688 363.193C88.7388 362.451 89.1618 361.774 89.7107 361.205C93.1211 357.891 101.559 359.517 105.321 361.493C105.609 361.643 109.258 364.132 110.148 364.807C108.894 361.843 107.64 358.891 106.199 356.052C104.355 352.189 102.261 348.45 99.9294 344.859C99.6786 345.046 93.2967 349.962 89.7233 350.787C86.6263 351.5 82.4887 351.55 79.9058 349.399C79.2817 348.913 78.7672 348.301 78.3957 347.603C78.0243 346.906 77.8042 346.138 77.7498 345.35C77.6954 344.562 77.8079 343.771 78.08 343.029C78.3521 342.288 78.7777 341.611 79.3291 341.044C82.7395 337.73 91.1777 339.356 94.9392 341.332C95.2276 341.495 99.152 344.171 99.8291 344.709C99.6912 344.496 99.5783 344.271 99.4404 344.058C96.9876 340.525 94.2268 337.215 91.1902 334.166C89.5352 332.452 87.8551 330.914 86.1749 329.463C85.0841 330.501 80.0187 335.191 76.8967 336.279C73.7746 337.367 69.7875 337.83 66.9789 335.979C66.3065 335.563 65.7291 335.01 65.2843 334.357C64.8394 333.705 64.5368 332.966 64.3962 332.189C64.2555 331.412 64.2799 330.614 64.4678 329.848C64.6557 329.081 65.0029 328.362 65.4868 327.737C68.5086 324.073 77.0722 324.761 81.0343 326.324C81.2474 326.399 83.3413 327.575 84.7957 328.337C84.0309 327.687 83.2661 326.999 82.5138 326.399C79.7303 324.123 77.0471 322.197 74.6523 320.521C73.2856 319.57 72.0193 318.745 70.8908 318.019C69.2734 318.47 62.7786 320.246 59.6064 319.783C56.4342 319.32 52.5725 317.894 50.955 314.955C50.5468 314.277 50.2873 313.52 50.1934 312.735C50.0995 311.949 50.1735 311.153 50.4103 310.398C50.6472 309.643 51.0417 308.947 51.5678 308.355C52.0939 307.763 52.7397 307.289 53.4627 306.963C57.8385 305.1 65.1232 309.64 67.9193 312.842C68.1575 313.117 71.43 317.844 71.3422 317.844H71.2544C72.408 318.557 73.6367 319.333 75.0159 320.208C77.4483 321.834 80.1817 323.697 83.0278 325.924C86.0971 328.297 89.0275 330.845 91.8046 333.553C94.9453 336.575 97.811 339.869 100.368 343.396L100.456 343.533C100.017 342.207 98.9389 338.53 98.8887 338.168C98.174 333.978 99.2649 325.486 103.49 323.297C104.202 322.95 104.979 322.757 105.77 322.73C106.562 322.702 107.35 322.842 108.084 323.14C108.817 323.437 109.48 323.885 110.028 324.456C110.576 325.026 110.997 325.705 111.264 326.449C112.518 329.563 111.164 333.478 109.521 336.192C107.653 339.243 101.246 343.608 100.744 343.958C103.256 347.615 105.522 351.434 107.528 355.39C108.706 357.691 109.822 360.042 110.913 362.406C110.574 361.255 110.286 360.217 110.261 360.067C109.546 355.877 110.637 347.385 114.862 345.197C115.574 344.849 116.351 344.656 117.142 344.629C117.934 344.602 118.722 344.741 119.456 345.039C120.189 345.336 120.852 345.785 121.4 346.355C121.948 346.925 122.369 347.604 122.636 348.348C123.89 351.462 122.536 355.377 120.881 358.091C119.226 360.805 113.822 364.67 112.38 365.67C112.781 366.583 113.207 367.484 113.634 368.409C115.577 372.799 117.495 377.164 119.514 381.441C120.229 382.942 120.981 384.393 121.733 385.843C121.432 384.818 121.194 383.942 121.169 383.805C120.454 379.628 121.545 371.123 125.771 368.934C126.483 368.59 127.261 368.398 128.052 368.373C128.844 368.347 129.632 368.489 130.365 368.787C131.098 369.086 131.76 369.535 132.308 370.105C132.856 370.676 133.277 371.355 133.544 372.098C134.798 375.213 133.444 379.115 131.789 381.829C130.134 384.543 125.257 388.082 123.551 389.233C124.354 390.696 125.169 392.159 126.059 393.548C126.661 394.473 127.188 395.411 127.84 396.312C128.492 397.212 129.093 398.113 129.72 399.013C130.974 400.676 132.228 402.402 133.544 404.016C134.422 405.129 135.275 406.179 136.127 407.23C135.4 405.754 134.046 402.815 133.958 402.552C132.629 398.538 132.416 389.971 136.253 387.157C136.905 386.71 137.644 386.406 138.422 386.262C139.2 386.118 139.999 386.139 140.768 386.323C141.538 386.507 142.26 386.85 142.888 387.33C143.516 387.809 144.036 388.415 144.415 389.108C146.12 391.997 145.381 396.074 144.164 399C142.823 402.215 137.394 407.33 136.717 407.955C137.908 409.769 139.312 411.457 140.666 413.02Z" fill="#D9D9D9"/>
<path d="M40.1346 384.919C40.1346 385.006 34.8811 382.568 34.5677 382.418C30.9441 380.204 25.2517 373.775 26.3802 369.16C26.5872 368.395 26.9542 367.683 27.457 367.069C27.9599 366.456 28.5872 365.955 29.2978 365.601C30.0083 365.246 30.786 365.046 31.5798 365.013C32.3735 364.98 33.1653 365.115 33.9031 365.408C37.0753 366.522 39.1441 370.111 40.097 373.125C41.2004 376.639 40.1346 384.919 40.1346 384.919Z" fill="#D9D9D9"/>
</g>
<g opacity="0.15">
<path d="M398.427 318.671C399.443 322.248 404.909 328.564 404.922 328.577C404.934 328.589 407.994 323.712 408.157 323.386C409.95 319.534 411.141 311.055 407.643 307.816C407.046 307.298 406.347 306.91 405.591 306.679C404.835 306.448 404.039 306.378 403.254 306.473C402.469 306.569 401.713 306.828 401.035 307.233C400.356 307.639 399.771 308.183 399.317 308.829C397.286 311.505 397.549 315.62 398.427 318.671Z" fill="#D9D9D9"/>
<path d="M350.28 413.02L349.917 413.446L350.945 416.647L352.45 414.821C353.904 413.058 355.421 411.144 356.963 409.156C359.069 410.309 361.242 411.337 363.471 412.233C362.982 415.784 364.574 422.551 364.787 423.414C362.631 424.089 360.524 424.727 358.518 425.29C357.151 425.69 355.835 426.053 354.556 426.39L356.575 428.892L359.333 428.054C361.515 427.378 363.847 426.615 366.229 425.802C366.655 426.615 370.166 433.206 372.937 435.345C375.445 437.284 379.206 439.097 382.441 438.184C383.211 438.002 383.934 437.661 384.563 437.183C385.192 436.705 385.713 436.1 386.093 435.407C386.472 434.715 386.701 433.951 386.766 433.165C386.83 432.378 386.728 431.587 386.466 430.843C384.761 426.403 376.435 424.352 372.172 424.589C371.921 424.589 369.226 425.052 367.521 425.365C368.499 425.027 369.439 424.714 370.442 424.352C372.41 423.664 374.366 422.913 376.46 422.113L379.495 420.862C380.51 420.462 381.538 419.912 382.579 419.424C384.961 418.261 387.318 416.923 389.651 415.609C390.265 417.335 392.534 423.414 394.728 425.727C396.923 428.041 400.346 430.342 403.681 429.967C404.469 429.905 405.236 429.678 405.931 429.302C406.626 428.925 407.234 428.406 407.715 427.78C408.196 427.154 408.54 426.434 408.724 425.666C408.908 424.899 408.929 424.102 408.784 423.326C407.768 418.686 399.844 415.397 395.606 414.984C395.343 414.984 392.271 414.984 390.591 415.047C391.983 414.221 393.387 413.408 394.779 412.545C398.803 410.044 402.791 407.305 406.778 404.628C408.032 403.803 409.223 403.003 410.451 402.127C410.665 402.74 413.185 410.031 415.655 412.62C417.836 414.922 421.272 417.235 424.607 416.86C425.396 416.798 426.162 416.571 426.857 416.195C427.552 415.818 428.16 415.299 428.641 414.673C429.123 414.047 429.466 413.327 429.651 412.559C429.835 411.792 429.855 410.995 429.71 410.219C428.695 405.579 420.77 402.29 416.533 401.877C416.219 401.877 411.793 401.877 410.677 401.977C413.373 400.201 416.081 398.45 418.814 396.837C422.498 394.632 426.322 392.668 430.262 390.959C430.362 391.246 432.97 398.875 435.49 401.514C437.685 403.816 441.107 406.142 444.443 405.767C445.232 405.705 446 405.478 446.696 405.1C447.392 404.723 448.001 404.203 448.482 403.576C448.964 402.948 449.307 402.226 449.49 401.457C449.674 400.688 449.692 399.89 449.546 399.113C448.543 394.473 440.606 391.184 436.368 390.771C436.042 390.771 431.29 390.771 430.425 390.884C430.651 390.796 430.876 390.671 431.114 390.571C435.109 388.95 439.243 387.694 443.465 386.819C445.784 386.306 448.041 385.943 450.235 385.643C450.574 387.107 452.204 393.81 454.21 396.437C456.216 399.063 459.225 401.652 462.648 401.639C463.438 401.663 464.224 401.52 464.954 401.221C465.685 400.922 466.345 400.473 466.891 399.904C467.437 399.335 467.857 398.657 468.124 397.915C468.391 397.174 468.499 396.384 468.441 395.599C467.952 390.871 460.429 386.731 456.266 385.856C456.041 385.856 453.683 385.581 451.966 385.431C452.969 385.318 453.984 385.168 454.937 385.068C458.523 384.705 461.821 384.58 464.755 384.505C466.422 384.505 467.927 384.505 469.331 384.505C470.422 385.756 474.86 390.821 477.807 392.209C480.753 393.598 484.715 394.498 487.7 392.947C488.413 392.606 489.046 392.118 489.558 391.517C490.069 390.915 490.448 390.212 490.669 389.455C490.89 388.697 490.949 387.902 490.841 387.12C490.734 386.338 490.462 385.588 490.044 384.918C487.436 380.953 478.848 380.741 474.748 381.879C474.384 381.966 469.03 384.142 469.08 384.205L469.143 384.28C467.789 384.28 466.334 384.205 464.755 384.205C461.821 384.205 458.485 384.268 454.9 384.568C451.012 384.845 447.144 385.346 443.314 386.069C439.019 386.861 434.803 388.029 430.713 389.558L430.575 389.62C431.666 388.757 434.638 386.231 434.851 386.018C437.747 382.917 441.546 375.225 439.227 371.01C438.824 370.331 438.283 369.743 437.637 369.286C436.992 368.829 436.257 368.513 435.481 368.358C434.705 368.204 433.905 368.214 433.133 368.389C432.361 368.563 431.635 368.898 431.002 369.372C428.243 371.286 427.24 375.288 427.077 378.452C426.939 382.029 429.873 389.195 430.111 389.708C425.989 391.37 421.984 393.309 418.125 395.511C415.881 396.762 413.649 398.125 411.417 399.501C412.345 398.725 413.16 398.012 413.26 397.9C416.169 394.811 419.955 387.119 417.648 382.967C417.246 382.287 416.705 381.699 416.059 381.242C415.414 380.785 414.679 380.469 413.903 380.315C413.127 380.16 412.327 380.17 411.555 380.345C410.783 380.52 410.057 380.855 409.423 381.328C406.665 383.242 405.662 387.244 405.499 390.408C405.336 393.573 407.743 399.788 408.395 401.414L405.888 403.015C401.838 405.604 397.813 408.218 393.776 410.657C392.359 411.507 390.929 412.308 389.5 413.158C390.315 412.458 390.992 411.907 391.092 411.77C394.001 408.668 397.788 400.977 395.481 396.824C395.076 396.146 394.532 395.559 393.886 395.103C393.239 394.647 392.504 394.332 391.727 394.177C390.951 394.023 390.15 394.033 389.378 394.207C388.605 394.38 387.878 394.714 387.243 395.186C384.485 397.099 383.482 401.102 383.319 404.266C383.156 407.43 385.35 413.021 386.115 414.984C384.623 415.759 383.131 416.535 381.651 417.223C380.636 417.661 379.683 418.161 378.642 418.548L375.583 419.799C373.602 420.5 371.583 421.225 369.64 421.863C368.285 422.313 366.994 422.713 365.702 423.113C367.119 422.275 369.878 420.612 370.091 420.399C372.946 417.986 375.131 414.881 376.435 411.382C376.767 411.128 377.073 410.844 377.351 410.532C377.893 409.958 378.307 409.276 378.568 408.532C378.828 407.787 378.929 406.996 378.863 406.211C378.796 405.425 378.565 404.662 378.183 403.971C377.802 403.281 377.279 402.678 376.648 402.202C372.774 399.438 364.687 402.315 361.276 404.841C361.063 404.991 359.07 406.855 357.816 408.043C358.443 407.23 359.07 406.454 359.697 405.604C360.95 403.941 362.204 402.24 363.458 400.426L365.276 397.687C365.903 396.799 366.455 395.761 367.057 394.798C368.398 392.509 369.64 390.133 370.818 387.719C372.285 388.82 377.539 392.647 380.648 393.36C383.758 394.073 387.883 394.123 390.465 391.972C391.089 391.487 391.604 390.876 391.975 390.179C392.346 389.483 392.566 388.716 392.621 387.929C392.675 387.142 392.563 386.352 392.291 385.612C392.019 384.871 391.593 384.196 391.042 383.63C387.632 380.303 379.194 381.929 375.432 383.917C375.206 384.042 372.661 385.768 371.282 386.731C371.997 385.281 372.724 383.817 373.388 382.316C375.332 377.989 377.15 373.562 379.006 369.109C379.57 367.759 380.147 366.408 380.723 365.057C381.25 365.457 387.381 370.147 390.867 370.948C393.964 371.661 398.101 371.711 400.684 369.56C401.308 369.073 401.823 368.462 402.194 367.764C402.566 367.066 402.786 366.299 402.84 365.511C402.895 364.723 402.782 363.932 402.51 363.19C402.238 362.448 401.812 361.772 401.261 361.205C397.851 357.891 389.425 359.517 385.663 361.493C385.375 361.643 381.726 364.132 380.836 364.807C382.09 361.843 383.344 358.891 384.773 356.052C386.622 352.192 388.716 348.453 391.042 344.859C391.28 345.046 397.675 349.962 401.236 350.787C404.333 351.5 408.483 351.55 411.053 349.399C411.677 348.913 412.192 348.301 412.563 347.603C412.935 346.906 413.155 346.138 413.209 345.35C413.264 344.562 413.151 343.771 412.879 343.029C412.607 342.288 412.181 341.611 411.63 341.044C408.232 337.73 399.794 339.356 396.032 341.332C395.732 341.495 391.807 344.171 391.143 344.709C391.268 344.496 391.393 344.271 391.531 344.058C393.984 340.525 396.745 337.215 399.781 334.166C401.436 332.452 403.117 330.914 404.797 329.463C405.888 330.501 410.953 335.191 414.075 336.279C417.197 337.367 421.184 337.83 423.993 335.979C424.665 335.563 425.243 335.01 425.687 334.357C426.132 333.705 426.435 332.966 426.575 332.189C426.716 331.412 426.692 330.614 426.504 329.848C426.316 329.081 425.969 328.362 425.485 327.737C422.463 324.073 413.899 324.761 409.937 326.324C409.724 326.399 407.63 327.575 406.176 328.337C406.928 327.687 407.706 326.999 408.445 326.399C411.229 324.123 413.925 322.197 416.319 320.521C417.686 319.57 418.952 318.745 420.081 318.019C421.686 318.47 428.193 320.246 431.365 319.783C434.537 319.32 438.387 317.894 440.017 314.955C440.421 314.276 440.677 313.52 440.769 312.735C440.861 311.95 440.786 311.155 440.549 310.402C440.313 309.648 439.92 308.952 439.396 308.36C438.872 307.767 438.229 307.292 437.509 306.963C433.121 305.1 425.848 309.64 423.052 312.842C422.814 313.117 419.542 317.844 419.617 317.844H419.717C418.564 318.557 417.335 319.333 415.956 320.208C413.523 321.834 410.777 323.697 407.944 325.924C404.875 328.297 401.944 330.845 399.167 333.553C396.026 336.575 393.161 339.869 390.603 343.396L390.516 343.533C390.942 342.207 392.033 338.53 392.083 338.168C392.785 333.978 391.694 325.486 387.469 323.297C386.758 322.95 385.982 322.757 385.192 322.73C384.401 322.703 383.614 322.843 382.881 323.14C382.148 323.438 381.487 323.886 380.94 324.456C380.393 325.027 379.973 325.706 379.708 326.449C378.454 329.563 379.808 333.478 381.451 336.192C383.306 339.243 389.726 343.608 390.227 343.958C387.711 347.612 385.445 351.431 383.444 355.39C382.265 357.691 381.15 360.042 380.059 362.406C380.397 361.255 380.686 360.217 380.711 360.067C381.425 355.877 380.335 347.385 376.109 345.197C375.398 344.849 374.621 344.656 373.829 344.629C373.038 344.602 372.25 344.741 371.516 345.039C370.782 345.336 370.12 345.785 369.572 346.355C369.024 346.925 368.602 347.604 368.336 348.348C367.082 351.462 368.436 355.377 370.078 358.091C371.721 360.805 377.15 364.67 378.592 365.67C378.178 366.583 377.764 367.484 377.338 368.409C375.395 372.799 373.464 377.164 371.458 381.441C370.743 382.942 369.991 384.393 369.238 385.843C369.539 384.818 369.777 383.942 369.802 383.805C370.517 379.628 369.426 371.123 365.188 368.934C364.476 368.592 363.7 368.402 362.91 368.378C362.12 368.354 361.334 368.495 360.602 368.793C359.87 369.092 359.209 369.54 358.662 370.11C358.116 370.679 357.695 371.357 357.427 372.098C356.173 375.213 357.528 379.115 359.17 381.829C360.813 384.543 365.715 388.082 367.42 389.233C366.605 390.696 365.803 392.159 364.913 393.548C364.298 394.473 363.784 395.411 363.132 396.312L361.239 399.013C359.985 400.676 358.731 402.402 357.477 404.016C356.6 405.129 355.747 406.179 354.895 407.23C355.609 405.754 356.976 402.815 357.051 402.552C358.393 398.538 358.606 389.971 354.769 387.157C354.117 386.71 353.378 386.406 352.6 386.262C351.822 386.118 351.023 386.139 350.253 386.323C349.484 386.507 348.762 386.85 348.134 387.33C347.506 387.809 346.985 388.415 346.607 389.108C344.902 391.997 345.641 396.074 346.858 399C348.187 402.215 353.628 407.33 354.305 407.955C353.039 409.769 351.635 411.457 350.28 413.02Z" fill="#D9D9D9"/>
<path d="M450.813 384.919C450.813 385.006 456.066 382.568 456.38 382.418C460.003 380.204 465.695 373.775 464.567 369.16C464.36 368.395 463.993 367.683 463.49 367.069C462.987 366.456 462.36 365.955 461.649 365.601C460.939 365.246 460.161 365.046 459.367 365.013C458.574 364.98 457.782 365.115 457.044 365.408C453.872 366.522 451.803 370.111 450.85 373.125C449.747 376.639 450.813 384.919 450.813 384.919Z" fill="#D9D9D9"/>
</g>
<path d="M342.494 340.868L259.429 306.137L329.505 138.197L412.571 172.928L342.494 340.868Z" fill="#D9D9D9" stroke="#727272" stroke-width="1.50459" stroke-linecap="round" stroke-linejoin="round"/>
<path d="M395.895 190.075C394.47 189.486 393.187 188.6 392.132 187.476C391.078 186.352 390.277 185.016 389.783 183.558C389.289 182.1 389.114 180.554 389.268 179.022C389.423 177.491 389.904 176.01 390.679 174.679L343.034 154.744C342.912 155.169 342.765 155.586 342.595 155.994C342.047 157.315 341.241 158.515 340.226 159.524C339.21 160.533 338.004 161.331 336.678 161.873C335.351 162.415 333.931 162.689 332.497 162.681C331.064 162.672 329.646 162.38 328.327 161.822C328.113 161.735 327.913 161.622 327.712 161.522L274.851 288.516C275.064 288.591 275.277 288.653 275.478 288.741C276.911 289.321 278.201 290.202 279.261 291.325C280.321 292.449 281.125 293.787 281.619 295.248C282.113 296.71 282.285 298.261 282.123 299.795C281.961 301.329 281.47 302.81 280.681 304.136L328.389 324.072C328.504 323.647 328.646 323.229 328.816 322.822C329.368 321.508 330.174 320.317 331.188 319.314C332.202 318.312 333.405 317.519 334.726 316.98C336.048 316.441 337.462 316.167 338.89 316.174C340.318 316.18 341.73 316.467 343.046 317.018C343.46 317.194 343.861 317.406 344.3 317.619L397.212 190.525C396.762 190.409 396.322 190.259 395.895 190.075ZM328.327 256.036C325.08 254.677 322.309 252.389 320.366 249.46C318.423 246.532 317.393 243.094 317.409 239.582C317.424 236.07 318.482 232.641 320.451 229.729C322.419 226.817 325.209 224.553 328.468 223.222C331.726 221.892 335.307 221.555 338.757 222.254C342.208 222.953 345.373 224.657 347.853 227.151C350.332 229.644 352.015 232.815 352.688 236.262C353.362 239.709 352.995 243.278 351.635 246.518C350.733 248.671 349.414 250.625 347.754 252.269C346.094 253.913 344.125 255.215 341.96 256.099C339.795 256.983 337.476 257.432 335.137 257.421C332.797 257.411 330.483 256.94 328.327 256.036Z" fill="#D9D9D9" stroke="#727272" stroke-width="1.50459" stroke-linecap="round" stroke-linejoin="round"/>
<path d="M341.403 341.295L262.588 297.797L350.481 138.411L429.284 181.897L341.403 341.295Z" fill="#D9D9D9" stroke="#727272" stroke-width="1.50459" stroke-linecap="round" stroke-linejoin="round"/>
<path d="M410.853 197.138C409.603 196.45 408.502 195.523 407.612 194.41C406.721 193.297 406.06 192.019 405.665 190.651C405.27 189.283 405.15 187.85 405.311 186.435C405.472 185.02 405.911 183.651 406.603 182.405C406.83 182.018 407.077 181.642 407.343 181.28L362.08 156.266C361.916 156.694 361.727 157.111 361.515 157.517C360.118 160.03 357.777 161.887 355.007 162.68C352.238 163.473 349.266 163.136 346.745 161.744C346.546 161.64 346.353 161.523 346.169 161.394L279.841 281.934C280.047 282.02 280.247 282.116 280.443 282.222C282.965 283.614 284.829 285.948 285.626 288.71C286.423 291.473 286.088 294.438 284.694 296.955C284.472 297.345 284.225 297.721 283.954 298.08L329.204 323.094C329.372 322.666 329.565 322.248 329.781 321.843C330.471 320.596 331.4 319.497 332.516 318.609C333.632 317.721 334.913 317.062 336.285 316.668C337.656 316.274 339.093 316.154 340.511 316.314C341.93 316.475 343.302 316.913 344.551 317.603C344.941 317.827 345.318 318.074 345.68 318.341L412.132 197.701C411.693 197.544 411.266 197.356 410.853 197.138ZM336.552 255.432C333.468 253.73 330.959 251.155 329.343 248.031C327.727 244.907 327.076 241.375 327.473 237.882C327.869 234.389 329.295 231.092 331.57 228.407C333.846 225.723 336.868 223.772 340.255 222.801C343.642 221.83 347.242 221.882 350.599 222.952C353.956 224.022 356.919 226.061 359.114 228.811C361.31 231.561 362.638 234.898 362.931 238.401C363.225 241.904 362.47 245.416 360.763 248.491C358.474 252.613 354.638 255.66 350.098 256.962C345.558 258.263 340.685 257.713 336.552 255.432Z" fill="#D9D9D9" stroke="#727272" stroke-width="1.50459" stroke-linecap="round" stroke-linejoin="round"/>
<path d="M339.949 341.659L267.93 287.705L377.088 141.989L449.107 195.943L339.949 341.659Z" fill="#D9D9D9" stroke="#727272" stroke-width="1.50459" stroke-linecap="round" stroke-linejoin="round"/>
<path d="M428.732 208.486C427.584 207.632 426.616 206.56 425.884 205.331C425.153 204.102 424.673 202.741 424.471 201.326C424.269 199.911 424.35 198.47 424.71 197.087C425.069 195.704 425.699 194.405 426.563 193.265C426.837 192.908 427.134 192.569 427.453 192.252L386.077 161.26C385.851 161.653 385.604 162.033 385.338 162.399C383.605 164.694 381.031 166.209 378.179 166.613C375.328 167.016 372.432 166.274 370.129 164.55C369.941 164.412 369.778 164.262 369.602 164.125L287.188 274.334C287.376 274.459 287.564 274.571 287.74 274.709C290.043 276.437 291.566 279.007 291.972 281.853C292.379 284.7 291.637 287.591 289.909 289.892C289.636 290.25 289.338 290.588 289.019 290.905L330.395 321.884C330.609 321.492 330.852 321.116 331.122 320.759C331.98 319.621 333.054 318.662 334.283 317.938C335.513 317.214 336.873 316.738 338.286 316.539C339.7 316.339 341.139 316.419 342.521 316.774C343.904 317.129 345.203 317.752 346.344 318.608C346.702 318.875 347.042 319.168 347.359 319.483L429.886 209.224C429.486 209.002 429.101 208.756 428.732 208.486ZM347.058 256.011C344.241 253.9 342.115 251.003 340.948 247.687C339.782 244.37 339.627 240.783 340.504 237.379C341.381 233.975 343.25 230.907 345.875 228.563C348.5 226.218 351.763 224.703 355.252 224.208C358.74 223.713 362.297 224.261 365.474 225.783C368.65 227.304 371.303 229.731 373.096 232.756C374.89 235.781 375.744 239.269 375.55 242.778C375.357 246.288 374.125 249.661 372.009 252.472C370.602 254.337 368.839 255.906 366.823 257.091C364.807 258.275 362.576 259.052 360.259 259.376C357.942 259.7 355.583 259.565 353.318 258.979C351.053 258.393 348.926 257.368 347.058 255.961V256.011Z" fill="#D9D9D9" stroke="#727272" stroke-width="1.50459" stroke-linecap="round" stroke-linejoin="round"/>
<path d="M338.507 341.821L274.362 278.75L402.076 148.893L466.209 211.964L338.507 341.821Z" fill="#D9D9D9" stroke="#727272" stroke-width="1.50459" stroke-linecap="round" stroke-linejoin="round"/>
<path d="M444.342 221.69C442.289 219.672 441.124 216.922 441.103 214.047C441.082 211.171 442.206 208.405 444.23 206.357C444.55 206.041 444.889 205.744 445.245 205.469L408.42 169.199C408.145 169.552 407.852 169.89 407.543 170.213C405.519 172.261 402.763 173.423 399.88 173.444C396.997 173.465 394.224 172.343 392.171 170.325C392.01 170.167 391.86 170 391.719 169.825L295.263 268.065C295.426 268.215 295.601 268.353 295.764 268.515C297.817 270.534 298.983 273.283 299.004 276.159C299.025 279.034 297.9 281.8 295.877 283.849C295.551 284.161 295.213 284.461 294.862 284.737L331.686 321.006C331.959 320.644 332.257 320.302 332.577 319.981C333.577 318.967 334.769 318.16 336.082 317.605C337.396 317.051 338.807 316.76 340.233 316.75C341.659 316.74 343.074 317.01 344.395 317.545C345.717 318.08 346.92 318.869 347.936 319.868C348.253 320.188 348.55 320.526 348.826 320.881L445.371 222.566C445.011 222.294 444.668 222.002 444.342 221.69ZM357.051 257.835C354.545 255.368 352.829 252.215 352.119 248.775C351.41 245.336 351.738 241.763 353.064 238.51C354.389 235.256 356.651 232.467 359.565 230.496C362.479 228.525 365.913 227.46 369.434 227.436C372.955 227.411 376.404 228.429 379.345 230.359C382.286 232.289 384.587 235.046 385.958 238.281C387.328 241.516 387.707 245.083 387.045 248.533C386.384 251.982 384.712 255.158 382.241 257.66C380.599 259.322 378.644 260.645 376.49 261.553C374.335 262.462 372.022 262.938 369.682 262.954C367.343 262.97 365.023 262.527 362.856 261.648C360.689 260.77 358.716 259.474 357.051 257.835Z" fill="#D9D9D9" stroke="#727272" stroke-width="1.50459" stroke-linecap="round" stroke-linejoin="round"/>
<path d="M256.947 327.76L141.595 400.874L18.9331 207.62L134.285 134.506C136.302 133.229 138.745 132.802 141.077 133.32C143.41 133.839 145.44 135.259 146.723 137.27L259.768 315.353C260.4 316.353 260.828 317.466 261.028 318.631C261.228 319.795 261.196 320.988 260.934 322.14C260.672 323.292 260.185 324.381 259.501 325.346C258.817 326.31 257.949 327.13 256.947 327.76Z" fill="#D9D9D9" stroke="#727272" stroke-width="1.50459" stroke-linecap="round" stroke-linejoin="round"/>
<path d="M253.699 327.887L138.347 401.001L15.6982 207.747L131.05 134.633C133.067 133.355 135.51 132.929 137.843 133.447C140.175 133.965 142.205 135.386 143.488 137.397L256.52 315.48C257.152 316.479 257.58 317.593 257.781 318.757C257.981 319.922 257.949 321.114 257.687 322.267C257.425 323.419 256.938 324.508 256.254 325.472C255.569 326.437 254.701 327.257 253.699 327.887Z" fill="#D9D9D9" stroke="#727272" stroke-width="1.50459" stroke-linecap="round" stroke-linejoin="round"/>
<path d="M249.937 330.44L134.585 403.554L11.9238 210.3L127.276 137.186C129.295 135.908 131.74 135.481 134.074 135.999C136.408 136.517 138.441 137.938 139.726 139.95L252.758 318.033C253.39 319.032 253.819 320.146 254.019 321.31C254.219 322.475 254.187 323.667 253.925 324.819C253.663 325.972 253.176 327.061 252.492 328.025C251.808 328.99 250.94 329.81 249.937 330.44Z" fill="#D9D9D9" stroke="#727272" stroke-width="1.50459" stroke-linecap="round" stroke-linejoin="round"/>
<path d="M73.5618 234.323L64.6973 220.415L68.1578 218.277C68.8353 217.805 69.6281 217.524 70.4523 217.464C71.1487 217.446 71.8302 217.667 72.3832 218.089C73.0553 218.591 73.6219 219.22 74.0508 219.94C74.4907 220.583 74.774 221.32 74.8783 222.091C74.9722 222.77 74.8494 223.462 74.5273 224.067C74.1461 224.745 73.5925 225.31 72.9224 225.706L71.3802 226.669L75.5052 233.147L73.5618 234.323ZM70.5025 225.218L71.3927 224.655C71.8691 224.391 72.2939 224.044 72.6465 223.63C72.7669 223.476 72.8536 223.298 72.9011 223.109C72.9486 222.919 72.9559 222.722 72.9224 222.529C72.8074 222.002 72.5855 221.504 72.2704 221.066C71.9617 220.541 71.5867 220.057 71.1545 219.628C71.015 219.489 70.8446 219.385 70.6573 219.324C70.4699 219.263 70.2708 219.247 70.0762 219.277C69.5086 219.412 68.9723 219.654 68.4964 219.99L67.5811 220.566L70.5025 225.218Z" fill="#D9D9D9"/>
<path d="M80.4205 229.97L74.515 214.186L76.3957 212.998L88.2318 225.017L86.3887 226.18L83.5174 223.091L80.6838 224.892L82.2385 228.819L80.4205 229.97ZM80.0694 223.279L82.389 221.816L77.2232 216.288L80.0694 223.279Z" fill="#D9D9D9"/>
<path d="M93.0332 222.19C92.3463 222.664 91.5362 222.929 90.7011 222.952C89.9412 222.943 89.2005 222.712 88.5696 222.29C87.8548 221.805 87.2344 221.195 86.739 220.489L88.1684 218.938C88.513 219.386 88.8947 219.804 89.3094 220.188C89.6636 220.532 90.0928 220.789 90.5632 220.939C90.8093 220.991 91.0635 220.991 91.3097 220.939C91.5558 220.888 91.7884 220.785 91.9926 220.639C92.2126 220.52 92.4047 220.356 92.556 220.158C92.7074 219.96 92.8145 219.731 92.8702 219.488C92.9292 218.973 92.7903 218.454 92.4816 218.037C92.1642 217.482 91.6763 217.044 91.0898 216.787C90.4961 216.574 89.883 216.419 89.2592 216.324L85.6106 215.749C84.9514 215.656 84.3192 215.425 83.7549 215.073C83.169 214.665 82.6774 214.136 82.313 213.522C82.0107 213.104 81.7979 212.629 81.6878 212.125C81.5778 211.622 81.573 211.101 81.6736 210.596C81.9563 209.595 82.6231 208.746 83.5292 208.232C84.0176 207.912 84.5557 207.676 85.1216 207.532C85.6034 207.413 86.1068 207.413 86.5886 207.532C87.0936 207.673 87.5662 207.911 87.9803 208.232C88.4836 208.637 88.9381 209.098 89.3345 209.608L87.9678 211.109C87.665 210.699 87.3251 210.318 86.9522 209.97C86.6401 209.673 86.248 209.473 85.8237 209.395C85.3461 209.364 84.8714 209.489 84.4711 209.751C84.0708 210.012 83.7666 210.397 83.6045 210.846C83.5563 211.089 83.5605 211.34 83.6167 211.581C83.6729 211.823 83.7798 212.049 83.9305 212.247C84.1457 212.613 84.4469 212.922 84.8081 213.147C85.1957 213.361 85.6217 213.497 86.062 213.547L89.7357 214.123C90.6051 214.244 91.4508 214.497 92.2433 214.873C93.0904 215.291 93.7997 215.942 94.2871 216.749C94.6898 217.363 94.9312 218.069 94.9892 218.8C95.0188 219.459 94.8624 220.114 94.5378 220.689C94.1661 221.304 93.6496 221.819 93.0332 222.19Z" fill="#D9D9D9"/>
<path d="M101.171 217.025C100.484 217.499 99.6741 217.764 98.8391 217.788C98.0828 217.779 97.3458 217.549 96.7201 217.125C95.9998 216.647 95.3784 216.036 94.8896 215.324L96.3691 213.773C96.7102 214.224 97.0921 214.643 97.5101 215.024C97.8634 215.368 98.2929 215.625 98.7639 215.774C99.0099 215.827 99.2643 215.828 99.5106 215.776C99.7569 215.724 99.9895 215.621 100.193 215.474C100.414 215.361 100.608 215.2 100.759 215.003C100.911 214.806 101.017 214.578 101.071 214.336C101.137 213.818 101.002 213.295 100.695 212.873C100.369 212.32 99.8783 211.882 99.2905 211.622C98.7011 211.409 98.0922 211.254 97.4724 211.159L93.8113 210.584C93.1521 210.491 92.5199 210.261 91.9556 209.909C91.3697 209.5 90.8781 208.971 90.5137 208.358C90.2114 207.94 89.9985 207.465 89.8885 206.961C89.7785 206.457 89.7737 205.937 89.8743 205.431C90.163 204.433 90.8341 203.588 91.7425 203.08C92.2274 202.76 92.7608 202.519 93.3223 202.367C93.8075 202.242 94.3166 202.242 94.8018 202.367C95.3063 202.504 95.7791 202.737 96.1935 203.055C96.6957 203.457 97.1463 203.919 97.5351 204.431L96.1685 205.932C95.8657 205.522 95.5257 205.141 95.1529 204.793C94.8439 204.492 94.4504 204.291 94.0244 204.218C93.548 204.193 93.0759 204.32 92.6768 204.581C92.2778 204.842 91.9724 205.223 91.8052 205.669C91.7601 205.912 91.7658 206.162 91.8219 206.403C91.878 206.644 91.9833 206.871 92.1312 207.07C92.3501 207.437 92.6503 207.749 93.0088 207.983C93.4026 208.182 93.8259 208.317 94.2627 208.383L97.9364 208.946C98.7789 209.079 99.5981 209.331 100.369 209.696C101.213 210.117 101.922 210.767 102.413 211.572C102.821 212.184 103.063 212.89 103.115 213.623C103.144 214.282 102.988 214.937 102.663 215.512C102.3 216.133 101.787 216.653 101.171 217.025Z" fill="#D9D9D9"/>
<path d="M105.923 213.796L97.0581 199.888L100.519 197.699C101.193 197.219 101.987 196.933 102.813 196.874C103.509 196.862 104.188 197.082 104.744 197.499C105.416 198.006 105.983 198.639 106.412 199.363C106.857 200.003 107.14 200.741 107.239 201.514C107.333 202.189 107.21 202.876 106.888 203.478C106.51 204.158 105.956 204.724 105.283 205.116L103.741 206.091L107.866 212.557L105.923 213.796ZM102.863 204.703L103.754 204.128C104.233 203.868 104.658 203.52 105.007 203.102C105.126 202.948 105.211 202.77 105.257 202.58C105.302 202.39 105.307 202.193 105.271 202.002C105.156 201.477 104.938 200.98 104.631 200.538C104.326 200.015 103.951 199.535 103.515 199.113C103.376 198.974 103.205 198.87 103.018 198.809C102.831 198.748 102.632 198.732 102.437 198.763C101.868 198.886 101.33 199.124 100.857 199.463L99.9419 200.051L102.863 204.703Z" fill="#D9D9D9"/>
<path d="M117.847 206.46C117.084 206.994 116.183 207.298 115.252 207.335C114.447 207.325 113.669 207.043 113.045 206.535C112.297 205.92 111.657 205.185 111.152 204.359L107.792 199.094C107.26 198.302 106.877 197.421 106.663 196.492C106.48 195.733 106.564 194.933 106.901 194.228C107.34 193.412 108 192.736 108.807 192.277C109.566 191.742 110.462 191.434 111.39 191.389C112.173 191.392 112.932 191.656 113.547 192.14C114.292 192.726 114.925 193.442 115.415 194.253L118.788 199.544C119.313 200.34 119.698 201.22 119.929 202.145C120.114 202.926 120.044 203.746 119.728 204.484C119.31 205.313 118.655 206 117.847 206.46ZM116.882 204.934C117.312 204.696 117.652 204.322 117.847 203.871C117.987 203.466 117.987 203.026 117.847 202.62C117.666 202.117 117.421 201.638 117.12 201.195L113.246 195.091C112.963 194.639 112.63 194.22 112.255 193.841C111.967 193.547 111.586 193.362 111.177 193.315C110.685 193.315 110.205 193.472 109.81 193.766C109.382 194.003 109.036 194.365 108.82 194.804C108.667 195.207 108.667 195.652 108.82 196.054C108.994 196.553 109.23 197.027 109.522 197.468L113.409 203.558C113.69 204.015 114.027 204.435 114.412 204.809C114.704 205.115 115.094 205.31 115.515 205.359C116.005 205.368 116.484 205.218 116.882 204.934Z" fill="#D9D9D9"/>
<path d="M123.464 202.684L114.6 188.776L117.408 186.988C118.168 186.471 119.019 186.101 119.916 185.9C120.634 185.757 121.38 185.872 122.022 186.225C122.766 186.687 123.383 187.328 123.815 188.088C124.14 188.577 124.398 189.107 124.58 189.664C124.749 190.132 124.804 190.634 124.743 191.127C124.667 191.589 124.468 192.021 124.166 192.378L130.586 198.094L128.718 199.282L122.737 193.916L121.22 194.867L125.37 201.395L123.464 202.684ZM120.367 193.529L121.107 193.066C121.589 192.794 122.014 192.433 122.361 192.003C122.608 191.664 122.716 191.243 122.662 190.827C122.563 190.27 122.345 189.741 122.022 189.276C121.677 188.626 121.126 188.107 120.455 187.801C120.08 187.741 119.697 187.762 119.331 187.863C118.965 187.965 118.626 188.144 118.336 188.389L117.471 188.926L120.367 193.529Z" fill="#D9D9D9"/>
<path d="M133.984 196.04L126.035 183.533L123.677 185.034L122.699 183.633L129.294 179.444L130.21 180.894L127.915 182.345L135.864 194.852L133.984 196.04Z" fill="#D9D9D9"/>
<path d="M183.915 282.56C189.397 259.117 174.79 235.68 151.288 230.212C127.786 224.744 104.291 239.315 98.8086 262.758C93.3266 286.2 107.934 309.637 131.436 315.105C154.938 320.573 178.434 306.002 183.915 282.56Z" stroke="#D9D9D9" stroke-width="1.50459" stroke-miterlimit="10"/>
<path d="M164.776 309.466C173.507 303.93 170.091 282.974 157.146 262.658C144.201 242.343 126.629 230.361 117.898 235.897C109.167 241.432 112.583 262.389 125.528 282.704C138.473 303.02 156.045 315.001 164.776 309.466Z" stroke="#D9D9D9" stroke-width="1.50459" stroke-miterlimit="10"/>
<path d="M102.287 253.707L140.967 229.168" stroke="#D9D9D9" stroke-width="1.50459" stroke-miterlimit="10"/>
<path d="M97.924 278.556L165.38 235.796" stroke="#D9D9D9" stroke-width="1.50459" stroke-miterlimit="10"/>
<path d="M117.546 309.347L185.001 266.574" stroke="#D9D9D9" stroke-width="1.50459" stroke-miterlimit="10"/>
<path d="M104.393 296.091L178.544 249.066" stroke="#D9D9D9" stroke-width="1.50459" stroke-miterlimit="10"/>
<path d="M142.322 316.531L181.002 292.005" stroke="#D9D9D9" stroke-width="1.50459" stroke-miterlimit="10"/>
<path d="M344.991 512.453C399.675 457.906 399.675 369.469 344.991 314.922C290.307 260.376 201.647 260.376 146.963 314.922C92.2786 369.469 92.2785 457.906 146.963 512.453C201.647 566.999 290.307 566.999 344.991 512.453Z" fill="#D9D9D9" stroke="#727272" stroke-width="1.50459" stroke-linecap="round" stroke-linejoin="round"/>
<path d="M217.852 542.919C225.359 544.548 232.994 545.519 240.671 545.821" stroke="#D9D9D9" stroke-width="1.50459" stroke-linecap="round" stroke-linejoin="round"/>
<path d="M200.687 537.948C204.49 539.323 208.352 540.532 212.272 541.575" stroke="#D9D9D9" stroke-width="1.50459" stroke-linecap="round" stroke-linejoin="round"/>
<path d="M118.474 377.516C109.565 408.82 112.536 442.302 126.819 471.559C141.103 500.816 165.697 523.794 195.897 536.101" stroke="#D9D9D9" stroke-width="1.50459" stroke-linecap="round" stroke-linejoin="round"/>
<path d="M136.291 339.483C131.502 346.524 127.404 354.008 124.054 361.833" stroke="#D9D9D9" stroke-width="1.50459" stroke-linecap="round" stroke-linejoin="round"/>
<path d="M226.992 351.653L241.273 354.605L246.138 359.632L252.482 360.608L254.501 366.611L253.022 370.676L248.696 372.652L238.101 370.926L237.813 369.638L242.815 366.148L239.355 359.782L229.876 358.482L224.836 354.167L226.992 351.653Z" fill="#D9D9D9"/>
<path d="M342.043 483.044L330.759 481.143L317.042 479.417L307.012 481.644L297.169 481.781L287.301 486.346L281.534 487.972L277.96 488.76L272.017 494.15L266.099 498.177L256.069 494.613L256.319 485.045L250.301 484.007L243.819 485.446L242.189 482.744L241.549 476.778L238.553 474.052L234.152 475.703L233.575 479.23L228.133 480.768L221.965 476.028L218.291 468.687L221.15 458.544L230.691 457.105L233.801 458.806L237.688 457.943L241.913 453.954L246.414 454.304L254.489 463.059L256.683 462.233L254.376 454.929L251.567 451.477L250.853 445.224L261.698 437.395L260.658 425.063L264.908 419.698L267.416 411.318L270.525 409.955L276.895 403.452L276.644 400.788L271.528 402.263L269.986 399.887L266.413 400.675L261.184 403.176L262.839 398.386L273.472 392.633L275.428 389.156L281.546 395.26L285.12 397.536L289.37 395.235L286.486 391.483L278.6 388.131L268.87 381.127L259.529 377.375L251.455 377.813L246.828 374.774L241.311 374.611L240.948 376.049L242.389 385.579L244.408 388.518L243.794 399.524L236.145 395.772V391.02L228.622 389.294L224.861 386.38L224.673 377.938L232.572 369.058L231.494 361.141L227.996 362.254L225.074 359.853L223.005 355.251L220.661 355.426L220.498 360.854L217.075 362.292L212.975 351.361L210.028 350.323L205.013 349.385L200.399 353.137L208.26 357.852L210.768 363.067L197.139 356.914L187.108 349.973L184.513 341.381L175.498 340.655L169.956 346.296C168.592 347.595 167.161 348.822 165.668 349.973C163.236 351.157 160.722 352.164 158.145 352.987L158.07 358.778L150.672 360.754L152.114 364.168L164.552 363.455L172.225 368.883L174.733 380.214L173.392 391.032L176.413 401.563L170.859 419.435L174.181 443.486L180.125 456.43L186.644 465.86L191.66 465.422L188.876 460.607L185.428 457.293L182.218 450.539L184.989 449.289L192.124 459.932L197.678 469.575L199.546 477.992L207.37 484.07L220.272 489.673L238.152 490.461L244.421 494.213L249.436 498.528L256.069 500.791L263.592 501.154L270.651 499.241C270.651 499.241 271.052 502.555 271.403 504.168C271.754 505.782 268.444 512.298 268.444 512.298L266.325 519.564L270.5 526.105L278.286 527.431L290.649 535.56L295.664 536.498L296.743 541.351L297.809 543.489C322.146 533.835 343.264 517.537 358.744 496.464L358.393 494.075L363.622 476.278L358.757 474.302L342.043 483.044Z" fill="#D9D9D9"/>
<path d="M347.322 347.748L342.382 342.395L336.251 336.279L332.803 326.862L338.859 326.537L338.457 323.235L334.169 323.848L337.379 321.434L340.765 318.307L340.05 315.068L335.035 310.753L332.652 303.974C308.674 285.139 279.186 274.63 248.671 274.046C218.156 273.461 188.285 282.832 163.599 300.735L172.251 304.362L169.016 311.203L163.135 313.855L164.389 322.735L162.019 324.285L159.512 328.563L161.129 334.316L166.796 333.74L165.743 339.744L171.26 338.493L178.006 324.435L177.83 319.033L186.77 316.381L188.174 311.991L197.365 308.94L197.114 303.224L203.847 301.386C203.847 301.386 208.148 297.721 209.113 297.508C211.08 297.491 213.046 297.621 214.993 297.896L220.723 300.71L227.532 299.197L232.547 294.344L240.145 293.344C241.374 293.817 242.698 293.989 244.007 293.844C245.624 293.481 249.988 290.092 249.988 290.092L260.695 293.844L265.234 295.895L266.312 300.748L271.328 300.31L272.306 297.046L276.957 298.046L277.208 300.71L268.043 305.463L275.152 311.353L288.267 315.243L294.536 320.633L301.821 319.695L302.724 316.106L305.168 314.855L295.301 310.253L289.96 310.753L293.884 308.527L288.768 303.887L294.21 302.349L302.222 304.65L305.57 312.054L310.071 315.468L315.086 324.223L323.374 327.812L325.744 338.493L334.295 341.695L334.759 345.322V349.749L338.006 355.139L339.26 357.916L344.99 357.666L346.369 351.588L347.322 347.748Z" fill="#D9D9D9"/>
<path d="M344.276 314.215L344.689 316.078L344.225 321.606L346.206 325.921L350.068 326.434L351.435 332.575L347.184 331.824L350.093 349.509L347.786 357.501L352.4 365.98L357.478 368.932L361.378 386.441L368.612 399.098L375.458 408.453L383.357 408.741L384.511 401.687L385.388 400.636C384.838 394.829 383.93 389.061 382.668 383.365C376.847 357.095 363.51 333.074 344.276 314.215Z" fill="#D9D9D9"/>
<path d="M268.882 328.787L245.386 324.147L236.045 326.561L235.142 333.202L230.315 329.863L223.544 333.065L225.262 343.883L232.045 346.797L234.891 339.718L240.847 343.495L252.846 349.999L256.883 358.954L267.691 367.758L280.806 362.481L279.402 357.703L275.264 352.838L271.729 340.044L273.747 333.828L268.882 328.787Z" fill="#D9D9D9"/>
<path d="M287.991 332.026L282.838 331.814L279.415 336.304L283.766 345.183L287.991 344.245V332.026Z" fill="#D9D9D9"/>
<path d="M319.525 331.489L307.2 328.112L304.065 324.735L301.683 326.273L305.394 332.239L309.218 340.231L314.522 341.094L315.199 339.581L311.2 335.378L320.352 336.742L319.525 331.489Z" fill="#D9D9D9"/>
<path d="M250.803 469.299L249.8 470.875L260.181 471.638L265.084 475.303L271.391 474.59L272.87 470.525L265.122 470.875L250.803 469.299Z" fill="#D9D9D9"/>
<path d="M281.045 469.049L274.663 472.501L276.218 474.877L284.656 473.001L285.697 470.062L282.851 471.025L281.045 469.049Z" fill="#D9D9D9"/>
<path d="M226.992 351.653L241.273 354.605L246.138 359.632L252.482 360.608L254.501 366.611L253.022 370.676L248.696 372.652L238.101 370.926L237.813 369.638L242.815 366.148L239.355 359.782L229.876 358.482L224.836 354.167L226.992 351.653Z" stroke="#D9D9D9" stroke-width="1.50459" stroke-linecap="round" stroke-linejoin="round"/>
<path d="M342.043 483.044L330.759 481.143L317.042 479.417L307.012 481.644L297.169 481.781L287.301 486.346L281.534 487.972L277.96 488.76L272.017 494.15L266.099 498.177L256.069 494.613L256.319 485.045L250.301 484.007L243.819 485.446L242.189 482.744L241.549 476.778L238.553 474.052L234.152 475.703L233.575 479.23L228.134 480.768L221.965 476.028L218.291 468.687L221.15 458.544L230.691 457.105L233.801 458.806L237.688 457.943L241.913 453.954L246.414 454.304L254.489 463.059L256.683 462.233L254.376 454.929L251.567 451.477L250.853 445.224L261.698 437.395L260.658 425.063L264.908 419.698L267.416 411.318L270.525 409.955L276.895 403.452L276.644 400.788L271.528 402.263L269.986 399.887L266.413 400.675L261.184 403.176L262.839 398.386L273.472 392.633L275.428 389.156L281.546 395.26L285.12 397.536L289.37 395.235L286.486 391.483L278.6 388.131L268.87 381.127L259.529 377.375L251.455 377.813L246.828 374.774L241.311 374.611L240.948 376.049L242.389 385.579L244.408 388.518L243.794 399.524L236.145 395.772V391.02L228.622 389.294L224.861 386.38L224.673 377.938L232.572 369.058L231.494 361.141L227.996 362.254L225.074 359.853L223.005 355.251L220.661 355.426L220.498 360.854L217.075 362.292L212.975 351.361L210.028 350.323L205.013 349.385L200.399 353.137L208.26 357.852L210.768 363.067L197.139 356.914L187.108 349.973L184.513 341.381L175.498 340.655L169.956 346.296C168.592 347.595 167.161 348.822 165.668 349.973C163.236 351.157 160.722 352.164 158.145 352.987L158.07 358.778L150.672 360.754L152.114 364.168L164.552 363.455L172.225 368.883L174.733 380.214L173.392 391.032L176.413 401.563L170.859 419.435L174.181 443.486L180.125 456.43L186.644 465.86L191.66 465.422L188.876 460.607L185.428 457.293L182.218 450.539L184.989 449.289L192.124 459.932L197.678 469.575L199.546 477.992L207.37 484.07L220.272 489.673L238.152 490.461L244.421 494.213L249.436 498.528L256.069 500.791L263.592 501.154L270.651 499.241C270.651 499.241 271.052 502.555 271.403 504.168C271.754 505.782 268.444 512.298 268.444 512.298L266.325 519.564L270.5 526.105L278.286 527.431L290.649 535.56L295.664 536.498L296.743 541.351L297.809 543.489C322.146 533.835 343.264 517.537 358.744 496.464L358.393 494.075L363.622 476.278L358.757 474.302L342.043 483.044Z" stroke="#D9D9D9" stroke-width="1.50459" stroke-linecap="round" stroke-linejoin="round"/>
<path d="M347.322 347.748L342.382 342.395L336.251 336.279L332.803 326.862L338.859 326.537L338.457 323.235L334.169 323.848L337.379 321.434L340.765 318.307L340.05 315.068L335.035 310.753L332.652 303.974C308.674 285.139 279.186 274.63 248.671 274.046C218.156 273.461 188.285 282.832 163.599 300.735L172.251 304.362L169.016 311.203L163.135 313.855L164.389 322.735L162.019 324.285L159.512 328.563L161.129 334.316L166.796 333.74L165.743 339.744L171.26 338.493L178.006 324.435L177.83 319.033L186.77 316.381L188.174 311.991L197.365 308.94L197.114 303.224L203.847 301.386C203.847 301.386 208.148 297.721 209.113 297.508C211.08 297.491 213.046 297.621 214.993 297.896L220.723 300.71L227.532 299.197L232.547 294.344L240.145 293.344C241.374 293.817 242.698 293.989 244.007 293.844C245.624 293.481 249.988 290.092 249.988 290.092L260.695 293.844L265.234 295.895L266.312 300.748L271.328 300.31L272.306 297.046L276.957 298.046L277.208 300.71L268.043 305.463L275.152 311.353L288.267 315.243L294.536 320.633L301.821 319.695L302.724 316.106L305.168 314.855L295.301 310.253L289.96 310.753L293.884 308.527L288.768 303.887L294.21 302.349L302.222 304.65L305.57 312.054L310.071 315.468L315.086 324.223L323.374 327.812L325.744 338.493L334.295 341.695L334.759 345.322V349.749L338.006 355.139L339.26 357.916L344.99 357.666L346.369 351.588L347.322 347.748Z" stroke="#D9D9D9" stroke-width="1.50459" stroke-linecap="round" stroke-linejoin="round"/>
<path d="M344.276 314.215L344.689 316.078L344.225 321.606L346.206 325.921L350.068 326.434L351.435 332.575L347.184 331.824L350.093 349.509L347.786 357.501L352.4 365.98L357.478 368.932L361.378 386.441L368.612 399.098L375.458 408.453L383.357 408.741L384.511 401.687L385.388 400.636C384.838 394.829 383.93 389.061 382.668 383.365C376.847 357.095 363.51 333.074 344.276 314.215Z" stroke="#D9D9D9" stroke-width="1.50459" stroke-linecap="round" stroke-linejoin="round"/>
<path d="M268.882 328.787L245.386 324.147L236.045 326.561L235.142 333.202L230.315 329.863L223.544 333.065L225.262 343.883L232.045 346.797L234.891 339.718L240.847 343.495L252.846 349.999L256.883 358.954L267.691 367.758L280.806 362.481L279.402 357.703L275.264 352.838L271.729 340.044L273.747 333.828L268.882 328.787Z" stroke="#D9D9D9" stroke-width="1.50459" stroke-linecap="round" stroke-linejoin="round"/>
<path d="M287.991 332.026L282.838 331.814L279.415 336.304L283.766 345.183L287.991 344.245V332.026Z" stroke="#D9D9D9" stroke-width="1.50459" stroke-linecap="round" stroke-linejoin="round"/>
<path d="M319.525 331.489L307.2 328.112L304.065 324.735L301.683 326.273L305.394 332.239L309.218 340.231L314.522 341.094L315.199 339.581L311.2 335.378L320.352 336.742L319.525 331.489Z" stroke="#D9D9D9" stroke-width="1.50459" stroke-linecap="round" stroke-linejoin="round"/>
<path d="M250.803 469.299L249.8 470.875L260.181 471.638L265.084 475.303L271.391 474.59L272.87 470.525L265.122 470.875L250.803 469.299Z" stroke="#D9D9D9" stroke-width="1.50459" stroke-linecap="round" stroke-linejoin="round"/>
<path d="M281.045 469.049L274.663 472.501L276.218 474.877L284.656 473.001L285.697 470.062L282.851 471.025L281.045 469.049Z" stroke="#D9D9D9" stroke-width="1.50459" stroke-linecap="round" stroke-linejoin="round"/>
<path d="M376.247 318.975C373.698 318.975 371.175 319.476 368.821 320.45C366.466 321.424 364.328 322.852 362.527 324.651C360.727 326.451 359.3 328.586 358.328 330.937C357.356 333.287 356.858 335.805 356.863 338.348C356.863 349.028 376.247 370.577 376.247 370.577C376.247 370.577 395.644 349.028 395.644 338.348C395.647 335.805 395.148 333.286 394.175 330.936C393.201 328.585 391.773 326.45 389.972 324.65C388.17 322.851 386.031 321.424 383.676 320.45C381.321 319.476 378.797 318.975 376.247 318.975ZM376.247 346.827C374.555 346.834 372.899 346.34 371.489 345.407C370.079 344.474 368.979 343.145 368.328 341.587C367.677 340.029 367.505 338.313 367.833 336.658C368.162 335.002 368.976 333.481 370.172 332.288C371.368 331.094 372.893 330.282 374.553 329.955C376.213 329.627 377.933 329.799 379.495 330.449C381.056 331.098 382.389 332.195 383.325 333.602C384.26 335.008 384.756 336.66 384.748 338.348C384.741 340.594 383.844 342.747 382.251 344.336C380.658 345.925 378.5 346.82 376.247 346.827Z" fill="#D9D9D9" stroke="#727272" stroke-width="1.50459" stroke-miterlimit="10"/>
<path d="M225.826 368.612C221.34 368.612 217.038 370.39 213.866 373.554C210.694 376.718 208.912 381.009 208.912 385.484C208.912 394.801 225.826 413.599 225.826 413.599C225.826 413.599 242.74 394.839 242.74 385.484C242.74 381.009 240.958 376.718 237.786 373.554C234.614 370.39 230.312 368.612 225.826 368.612ZM225.826 392.913C224.353 392.913 222.913 392.477 221.688 391.661C220.464 390.844 219.509 389.684 218.945 388.327C218.382 386.969 218.234 385.475 218.521 384.034C218.809 382.593 219.518 381.269 220.56 380.231C221.601 379.192 222.928 378.484 224.373 378.197C225.818 377.911 227.315 378.058 228.676 378.62C230.037 379.182 231.2 380.135 232.019 381.356C232.837 382.578 233.274 384.014 233.274 385.484C233.274 387.454 232.489 389.344 231.092 390.737C229.696 392.13 227.801 392.913 225.826 392.913Z" fill="#D9D9D9" stroke="#727272" stroke-width="1.50459" stroke-miterlimit="10"/>
<path d="M289.784 500.182C287.528 500.182 285.365 501.075 283.768 502.664C282.172 504.254 281.274 506.411 281.27 508.661C281.27 513.351 289.784 522.806 289.784 522.806C289.784 522.806 298.285 513.351 298.285 508.661C298.281 506.413 297.385 504.258 295.791 502.669C294.198 501.079 292.037 500.185 289.784 500.182ZM289.784 512.401C289.04 512.401 288.313 512.181 287.694 511.768C287.076 511.356 286.593 510.77 286.309 510.085C286.024 509.399 285.95 508.645 286.095 507.917C286.24 507.189 286.598 506.52 287.124 505.996C287.65 505.471 288.32 505.114 289.05 504.969C289.78 504.824 290.536 504.898 291.223 505.182C291.911 505.466 292.498 505.947 292.911 506.564C293.325 507.181 293.545 507.907 293.545 508.649C293.545 509.141 293.448 509.629 293.259 510.085C293.07 510.54 292.793 510.953 292.444 511.302C292.094 511.65 291.68 511.927 291.223 512.115C290.767 512.304 290.278 512.401 289.784 512.401Z" fill="#D9D9D9" stroke="#727272" stroke-width="1.50459" stroke-miterlimit="10"/>
<path d="M183.986 421.828C181.73 421.831 179.568 422.727 177.974 424.319C176.38 425.912 175.485 428.07 175.485 430.32C175.485 435.01 183.986 444.465 183.986 444.465C183.986 444.465 192.499 435.01 192.499 430.32C192.499 428.067 191.602 425.907 190.006 424.315C188.409 422.722 186.244 421.828 183.986 421.828ZM183.986 434.059C183.242 434.059 182.515 433.839 181.896 433.427C181.278 433.015 180.796 432.429 180.511 431.743C180.226 431.057 180.152 430.303 180.297 429.575C180.442 428.847 180.8 428.179 181.326 427.654C181.852 427.129 182.522 426.772 183.252 426.627C183.982 426.483 184.738 426.557 185.425 426.841C186.113 427.125 186.7 427.606 187.114 428.223C187.527 428.84 187.747 429.565 187.747 430.307C187.747 431.302 187.351 432.257 186.646 432.96C185.94 433.664 184.984 434.059 183.986 434.059Z" fill="#D9D9D9" stroke="#727272" stroke-width="1.50459" stroke-miterlimit="10"/>
<path d="M214.077 457.545C212.96 457.545 211.853 457.765 210.821 458.192C209.789 458.619 208.851 459.244 208.062 460.033C207.272 460.822 206.646 461.758 206.22 462.788C205.793 463.818 205.575 464.922 205.576 466.037C205.576 470.727 214.077 480.182 214.077 480.182C214.077 480.182 222.591 470.727 222.591 466.037C222.591 463.785 221.694 461.625 220.097 460.032C218.5 458.44 216.335 457.545 214.077 457.545ZM214.077 469.776C213.333 469.776 212.606 469.556 211.987 469.144C211.369 468.732 210.887 468.146 210.602 467.46C210.317 466.775 210.243 466.02 210.388 465.293C210.533 464.565 210.891 463.896 211.417 463.371C211.943 462.847 212.614 462.489 213.343 462.345C214.073 462.2 214.829 462.274 215.517 462.558C216.204 462.842 216.791 463.323 217.205 463.94C217.618 464.557 217.839 465.282 217.839 466.024C217.839 467.02 217.442 467.974 216.737 468.678C216.031 469.381 215.075 469.776 214.077 469.776Z" fill="#D9D9D9" stroke="#727272" stroke-width="1.50459" stroke-miterlimit="10"/>
<path d="M319.763 473.579C318.437 473.579 317.125 473.839 315.9 474.345C314.676 474.851 313.563 475.593 312.626 476.527C311.689 477.462 310.945 478.572 310.438 479.794C309.931 481.015 309.67 482.324 309.67 483.647C309.67 489.199 319.763 500.406 319.763 500.406C319.763 500.406 329.794 489.149 329.794 483.647C329.802 482.327 329.548 481.02 329.048 479.798C328.548 478.577 327.81 477.467 326.878 476.531C325.946 475.595 324.837 474.853 323.616 474.346C322.395 473.839 321.085 473.579 319.763 473.579ZM319.763 488.074C318.882 488.076 318.019 487.818 317.285 487.331C316.551 486.844 315.979 486.151 315.641 485.339C315.302 484.527 315.213 483.633 315.384 482.771C315.556 481.908 315.98 481.116 316.603 480.495C317.226 479.873 318.02 479.45 318.885 479.279C319.75 479.108 320.646 479.197 321.46 479.534C322.273 479.872 322.968 480.443 323.457 481.175C323.945 481.907 324.204 482.767 324.201 483.647C324.201 484.228 324.087 484.804 323.864 485.341C323.641 485.878 323.314 486.366 322.901 486.777C322.489 487.188 322 487.514 321.461 487.737C320.923 487.959 320.346 488.074 319.763 488.074Z" fill="#D9D9D9" stroke="#727272" stroke-width="1.50459" stroke-miterlimit="10"/>
<path d="M319.023 281.215C316.649 281.215 314.372 282.156 312.693 283.831C311.014 285.505 310.071 287.777 310.071 290.145C310.071 295.148 319.023 305.04 319.023 305.04C319.023 305.04 327.988 295.035 327.988 290.145C327.985 287.775 327.039 285.504 325.358 283.83C323.677 282.155 321.399 281.215 319.023 281.215ZM319.023 294.084C318.242 294.084 317.478 293.853 316.829 293.421C316.179 292.988 315.673 292.372 315.374 291.653C315.075 290.933 314.997 290.141 315.149 289.376C315.302 288.612 315.678 287.91 316.23 287.359C316.783 286.808 317.486 286.433 318.253 286.281C319.019 286.129 319.813 286.207 320.535 286.505C321.256 286.803 321.873 287.308 322.307 287.956C322.741 288.604 322.973 289.366 322.973 290.145C322.973 291.19 322.557 292.192 321.816 292.931C321.075 293.669 320.071 294.084 319.023 294.084Z" fill="#D9D9D9" stroke="#727272" stroke-width="1.50459" stroke-miterlimit="10"/>
<path d="M165.693 337.093C164.516 337.092 163.35 337.321 162.263 337.769C161.175 338.217 160.187 338.875 159.354 339.704C158.522 340.534 157.861 341.519 157.41 342.603C156.96 343.687 156.728 344.849 156.728 346.023C156.728 350.963 165.693 360.919 165.693 360.919C165.693 360.919 174.645 350.913 174.645 346.023C174.645 343.655 173.702 341.383 172.023 339.709C170.344 338.034 168.067 337.093 165.693 337.093ZM165.693 349.963C164.911 349.965 164.146 349.736 163.495 349.305C162.844 348.873 162.336 348.259 162.035 347.539C161.734 346.82 161.654 346.027 161.805 345.262C161.956 344.497 162.331 343.794 162.883 343.242C163.435 342.69 164.138 342.313 164.905 342.16C165.671 342.007 166.466 342.084 167.189 342.382C167.911 342.68 168.529 343.185 168.963 343.833C169.398 344.481 169.63 345.243 169.63 346.023C169.63 347.066 169.215 348.066 168.477 348.804C167.739 349.543 166.738 349.959 165.693 349.963Z" fill="#D9D9D9" stroke="#727272" stroke-width="1.50459" stroke-miterlimit="10"/>
<path d="M271.979 144.652C271.979 144.652 271.202 215.065 271.202 226.696C271.202 238.327 270.236 249.583 270.236 249.583C270.236 249.583 273.734 252.085 273.145 255.011C272.492 257.492 271.58 259.898 270.424 262.19C269.088 261.889 267.708 261.826 266.349 262.002C264.983 262.39 256.82 266.067 255.454 266.067C254.087 266.067 253.51 267.23 253.122 263.566C252.698 260.286 252.568 256.975 252.733 253.673C252.976 250.726 253.433 247.8 254.099 244.918L245.925 155.895L243.981 242.592C243.981 242.592 244.37 247.832 244.959 248.845C245.732 250.233 246.258 251.744 246.514 253.31C246.514 254.273 244.759 263.391 244.006 263.778C243.254 264.166 240.897 265.529 240.897 265.529C240.897 265.529 239.342 265.142 237.198 262.428C235.054 259.714 230.014 259.926 229.036 260.289L228.058 260.677C228.058 260.677 225.149 257.187 224.559 254.661C223.97 252.135 227.87 251.947 227.669 245.156C227.468 238.365 221.625 180.759 221.625 180.759L220.259 141.988L272.368 140.437L271.979 144.652Z" fill="#D9D9D9" stroke="#727272" stroke-width="1.50459" stroke-miterlimit="10"/>
<path d="M251.567 54.6538L230.766 56.017L229.989 144.652C229.989 144.652 231.543 146.015 244.37 146.203C257.197 146.391 259.93 144.852 259.93 144.852L251.567 54.6538Z" fill="#D9D9D9" stroke="#727272" stroke-width="1.50459" stroke-miterlimit="10"/>
<path d="M250.289 11.004C250.289 11.004 255.379 18.1704 255.304 19.2585C255.16 20.3292 254.951 21.3901 254.677 22.4352C254.677 22.4352 260.219 28.1382 259.692 28.601L256.608 31.2274C256.608 31.2274 256.696 36.5678 256.696 37.3932C256.696 38.2187 257.874 40.2948 257.511 41.1452C257.09 42.0735 256.509 42.9203 255.793 43.6466C255.153 44.1844 250.514 44.0968 250.514 44.0968L250.427 51.4383C250.427 51.4383 251.242 56.0658 250.514 57.6916C249.787 59.3175 247.693 60.5932 242.427 60.8683C237.161 61.1435 234.591 59.355 233.049 58.0794C231.506 56.8037 231.707 45.0974 231.607 43.2839C231.506 41.4704 231.431 38.0186 230.428 36.4802C229.425 34.9419 222.905 23.9735 221.802 21.247C220.698 18.5206 220.611 15.7191 222.704 13.2803C224.798 10.8414 227.431 9.74086 227.72 8.37762C228.008 7.01439 227.72 5.66367 229.713 5.02582C231.165 4.64522 232.677 4.55174 234.164 4.75067C234.164 4.75067 237.989 0.135693 239.982 0.673482L241.988 1.21127C241.988 1.21127 247.53 -0.327056 250.439 2.12426C253.348 4.57558 253.925 8.46517 250.289 11.004Z" fill="#D9D9D9" stroke="#727272" stroke-width="1.50459" stroke-miterlimit="10"/>
<path d="M251.329 23.8204C251.329 24.971 251.68 25.909 252.131 25.909C252.583 25.909 252.934 24.971 252.934 23.8204C252.934 22.6697 252.57 21.7192 252.131 21.7192C251.693 21.7192 251.329 22.6572 251.329 23.8204Z" fill="#D9D9D9" stroke="#727272" stroke-width="1.50459" stroke-miterlimit="10"/>
<path d="M227.657 8.37762C227.92 7.01439 227.657 5.66367 229.651 5.02582C231.102 4.64522 232.614 4.55174 234.102 4.75067C234.102 4.75067 237.926 0.135693 239.919 0.673482L241.925 1.21127C241.925 1.21127 247.467 -0.327056 250.376 2.12426C253.285 4.57558 253.925 8.46517 250.288 11.004C250.288 11.004 240.258 12.0921 241.512 13.9056C242.766 15.7191 243.33 17.1699 242.339 17.6576C241.349 18.1454 236.797 20.4591 237.249 21.5472C237.7 22.6353 238.151 25.5369 237.525 25.7245C236.898 25.9121 236.973 25.5368 235.017 24.0861C233.061 22.6353 230.829 23.7234 230.566 26.5874C230.465 27.6297 230.713 28.6759 231.271 29.5629C231.829 30.4498 232.665 31.1275 233.65 31.4901C234.653 31.6651 234.102 35.2421 232.196 36.5678C231.758 36.8581 231.287 37.0934 230.792 37.2682C230.684 36.9591 230.545 36.6616 230.378 36.3802C229.375 34.8419 222.855 23.8735 221.751 21.147C220.648 18.4205 220.56 15.619 222.654 13.1802C224.748 10.7414 227.381 9.74086 227.657 8.37762Z" fill="#D9D9D9" stroke="#727272" stroke-width="1.50459" stroke-miterlimit="10"/>
<path d="M255.605 34.0299C255.605 34.0299 251.517 34.7553 249.16 31.8662" stroke="#D9D9D9" stroke-width="1.50459" stroke-miterlimit="10"/>
<path d="M250.464 44.0969L242.101 41.458L250.276 49.7124L250.464 44.0969Z" fill="#D9D9D9" stroke="#727272" stroke-width="1.50459" stroke-miterlimit="10"/>
<path d="M253.285 19.2058C253.285 19.2058 250.326 17.5925 248.608 20.0188" stroke="#D9D9D9" stroke-width="1.50459" stroke-miterlimit="10"/>
<path d="M272.669 88.4181C272.669 88.4181 284.016 107.378 284.33 111.043C284.643 114.707 278.349 127.301 276.506 127.714C274.663 128.127 269.447 122.211 268.845 119.76C268.243 117.309 267.303 89.6437 268.381 87.2425C269.459 84.8412 272.669 88.4181 272.669 88.4181Z" fill="#D9D9D9" stroke="#727272" stroke-width="1.50459" stroke-miterlimit="10"/>
<path d="M253.849 54.4407L264.732 55.2661C264.732 55.2661 270.726 53.8779 272.531 54.4407C274.337 55.0035 300.002 64.8713 302.798 66.8223C305.594 68.7734 305.168 75.8522 304.466 78.7788C304.225 79.7997 303.661 80.7161 302.857 81.392C302.053 82.0679 301.052 82.4672 300.002 82.5308C298.748 82.6684 272.819 81.005 272.819 81.005L279.502 148.741L265.56 153.244L255.667 154.494L250.777 70.0616L253.849 54.4407Z" fill="#D9D9D9" stroke="#727272" stroke-width="1.50459" stroke-miterlimit="10"/>
<path d="M250.289 49.7249L253.849 54.4399C253.849 54.4399 254.263 61.5312 253.298 64.4453C252.616 66.41 251.777 68.3172 250.79 70.1483L246.326 59.8553C248.241 56.7406 249.583 53.31 250.289 49.7249Z" fill="#D9D9D9" stroke="#727272" stroke-width="1.50459" stroke-miterlimit="10"/>
<path d="M233.036 72.7623L234.29 154.794C234.29 154.794 222.027 153.418 217.99 151.73C215.689 150.771 213.438 149.698 211.244 148.515C211.244 148.515 215.231 118.499 215.382 116.098C215.532 113.697 215.532 111.658 215.532 111.658C215.532 111.658 206.492 114.872 203.119 113.809C199.747 112.746 199.283 109.219 199.596 104.779C199.774 102.324 199.8 99.8593 199.671 97.4005C199.671 96.6376 200.587 83.9683 204.273 74.4882C207.959 65.0081 205.727 64.7079 208.335 63.032C210.943 61.3561 229.951 54.615 229.951 54.615L232.095 59.0549L233.036 72.7623Z" fill="#D9D9D9" stroke="#727272" stroke-width="1.50459" stroke-miterlimit="10"/>
<path d="M218.554 59.2063C218.554 59.2063 221.312 91.6237 218.09 102.329L213.075 102.492C213.388 106.244 215.67 99.578 216.284 79.2421C216.548 70.4874 212.611 61.1949 212.611 61.1949C214.54 60.3863 216.526 59.7216 218.554 59.2063Z" fill="#D9D9D9" stroke="#727272" stroke-width="1.50459" stroke-miterlimit="10"/>
<path d="M231.958 50.2265C231.958 50.2265 233.776 54.8165 234.879 57.1803C235.982 59.5441 236.797 61.0824 236.797 61.0824L233.036 72.7637C231.469 68.4418 230.315 63.9822 229.588 59.444C229.024 54.1537 228.522 54.9666 228.522 54.9666C228.522 54.9666 230.98 49.251 231.958 50.2265Z" fill="#D9D9D9" stroke="#727272" stroke-width="1.50459" stroke-miterlimit="10"/>
<path d="M269.748 34.9315C268.621 34.5473 267.543 34.0309 266.538 33.3932C265.698 32.7053 264.03 30.0539 263.466 29.5036C262.902 28.9533 260.144 29.9163 259.705 28.6031C259.266 27.2899 258.952 25.9392 260.608 26.3269C262.244 26.6199 263.899 26.7955 265.56 26.8521L262.94 18.3101H274.964C274.964 18.3101 278.449 30.1414 278.449 31.1044C278.352 32.1847 278.167 33.2554 277.898 34.3062C277.898 34.3062 294.348 52.666 297.834 57.256C301.319 61.846 305.645 68.1118 306.071 70.4756C306.497 72.8394 305.231 80.3434 302.31 81.3189C299.388 82.2945 296.73 81.1814 293.671 78.2673C290.612 75.3532 281.396 56.5681 280.982 55.8678C280.568 55.1674 273.459 37.6455 273.033 37.1077C272.003 36.2891 270.904 35.561 269.748 34.9315Z" fill="#D9D9D9" stroke="#727272" stroke-width="1.50459" stroke-miterlimit="10"/>
<path d="M263.629 55.3794C263.629 55.3794 267.153 78.3292 270.989 89.6478C274.826 100.966 278.036 108.145 278.036 108.145L276.356 118.151C271.822 109.969 267.977 101.427 264.858 92.6119C259.642 77.929 256.733 54.9917 256.733 54.9917L263.629 55.3794Z" fill="#D9D9D9" stroke="#727272" stroke-width="1.50459" stroke-miterlimit="10"/>
<path d="M232.935 77.3644L237.073 113.997L213.463 111.195L207.307 74.688L232.935 77.3644Z" fill="#D9D9D9" stroke="#727272" stroke-width="1.50459" stroke-miterlimit="10"/>
<path d="M229.889 77.5533L237.411 113.648L213.639 113.035L204.135 77.2532L229.889 77.5533Z" fill="#D9D9D9" stroke="#727272" stroke-width="1.50459" stroke-miterlimit="10"/>
<path d="M206.893 98.3642C209.482 99.7568 212.144 101.009 214.868 102.116C216.097 102.604 217.414 102.83 218.736 102.778C220.058 102.727 221.354 102.399 222.541 101.816C223.883 101.202 225.083 100.316 226.064 99.2147C226.064 99.2147 226.829 95.0874 227.744 94.4746C228.66 93.8618 230.816 93.399 231.732 91.9733C232.647 90.5475 233.111 90.7226 233.424 92.1233C233.738 93.5241 234.039 95.0374 233.111 95.6502C232.572 96.0033 232.19 96.5497 232.045 97.1761C232.045 97.1761 232.195 98.2516 233.424 97.7889C234.653 97.3261 235.418 95.8003 236.647 96.2631C236.917 96.3073 237.172 96.4147 237.393 96.5766C237.613 96.7385 237.791 96.9502 237.914 97.1943C238.036 97.4385 238.099 97.7081 238.096 97.981C238.094 98.2539 238.027 98.5224 237.9 98.7644C237.55 99.5146 237.13 100.231 236.647 100.903C236.647 100.903 238.176 104.43 237.411 106.719C236.647 109.007 232.81 110.396 230.967 110.546C229.124 110.696 223.92 110.846 223.92 110.846C223.92 110.846 216.397 113.347 211.808 114.673C207.219 115.999 205.828 115.749 203.22 113.76C201.878 112.726 200.891 111.302 200.397 109.684C199.903 108.066 199.925 106.335 200.461 104.73C201.527 101.116 202.756 99.1271 206.893 98.3642Z" fill="#D9D9D9" stroke="#727272" stroke-width="1.50459" stroke-miterlimit="10"/>
<path d="M269.259 259.284C269.259 259.284 271.767 265.287 272.368 266.451C273.663 268.538 275.472 270.26 277.622 271.453C280.543 273.192 284.042 274.355 283.264 275.906C282.487 277.456 278.989 277.844 276.067 278.232C273.146 278.62 266.35 277.456 263.617 277.456C260.883 277.456 254.84 276.493 254.288 275.13C253.737 273.767 254.489 264.074 254.489 264.074C254.489 264.074 258.953 259.084 269.259 259.284Z" fill="#D9D9D9" stroke="#727272" stroke-width="1.50459" stroke-miterlimit="10"/>
<path d="M254.351 275.183C254.134 274.139 254.063 273.07 254.138 272.007L261.146 274.083C265.434 275.154 269.804 275.865 274.211 276.209C277.255 276.363 280.298 275.891 283.151 274.821C283.294 274.969 283.388 275.158 283.419 275.362C283.451 275.566 283.418 275.774 283.327 275.959C282.549 277.51 279.051 277.897 276.13 278.285C273.208 278.673 266.413 277.51 263.679 277.51C260.946 277.51 254.877 276.547 254.351 275.183Z" fill="#D9D9D9" stroke="#727272" stroke-width="1.50459" stroke-miterlimit="10"/>
<path d="M241.474 264.555C241.474 264.555 240.898 274.56 240.76 275.286C240.622 276.011 239.907 276.536 237.926 276.774C235.945 277.012 235.08 276.912 233.951 277.462C232.823 278.012 230.403 279.225 223.595 279.225C216.787 279.225 214.655 277.975 215.508 275.561C216.36 273.147 222.88 268.357 224.447 266.456C225.752 264.583 226.858 262.58 227.745 260.478C227.745 260.478 229.688 258.852 233.525 259.665C237.362 260.478 238.352 261.979 238.779 262.654C239.578 263.417 240.487 264.058 241.474 264.555Z" fill="#D9D9D9" stroke="#727272" stroke-width="1.50459" stroke-miterlimit="10"/>
<path d="M215.482 275.607C215.54 275.447 215.611 275.292 215.696 275.144C216.358 275.847 217.15 276.416 218.028 276.82C220.535 278.07 230.666 277.37 232.936 276.144C235.529 275.005 238.203 274.056 240.935 273.305C240.86 274.381 240.797 275.181 240.76 275.357C240.622 276.032 239.907 276.607 237.926 276.845C235.945 277.082 235.08 276.982 233.951 277.533C232.823 278.083 230.403 279.296 223.595 279.296C216.786 279.296 214.655 278.045 215.482 275.607Z" fill="#D9D9D9" stroke="#727272" stroke-width="1.50459" stroke-miterlimit="10"/>
<path d="M259.742 20.2215L269.02 19.6086V26.85L259.742 26.2372C259.303 26.2372 258.94 24.899 258.94 23.2356C258.94 21.5722 259.366 20.2215 259.742 20.2215Z" fill="#D9D9D9" stroke="#727272" stroke-width="1.50459" stroke-miterlimit="10"/>
<path d="M257.197 19.4983H260.118C260.194 19.4988 260.269 19.5178 260.335 19.5538C260.402 19.5897 260.459 19.6414 260.501 19.7043C260.543 19.7673 260.569 19.8396 260.577 19.9148C260.584 19.9901 260.573 20.0661 260.545 20.1361C260.225 21.1381 260.076 22.1867 260.106 23.2378C260.075 24.2849 260.223 25.3296 260.545 26.327C260.573 26.397 260.584 26.473 260.577 26.5482C260.569 26.6235 260.543 26.6958 260.501 26.7588C260.459 26.8217 260.402 26.8734 260.335 26.9093C260.269 26.9452 260.194 26.9643 260.118 26.9648H257.197C256.645 26.9648 256.194 25.2889 256.194 23.2128C256.194 21.1367 256.645 19.4983 257.197 19.4983Z" fill="#D9D9D9" stroke="#727272" stroke-width="1.50459" stroke-miterlimit="10"/>
<path d="M266.4 18.3104L286.549 17.3098V29.1662L266.4 28.1782C265.673 28.1782 265.146 25.9645 265.146 23.2505C265.146 20.5365 265.635 18.3104 266.4 18.3104Z" fill="#D9D9D9" stroke="#727272" stroke-width="1.50459" stroke-miterlimit="10"/>
<path d="M284.969 23.238C284.969 26.5023 285.684 29.1662 286.549 29.1662C287.414 29.1662 288.129 26.5023 288.129 23.238C288.129 19.9737 287.427 17.3098 286.549 17.3098C285.671 17.3098 284.969 19.9612 284.969 23.238Z" fill="#D9D9D9" stroke="#727272" stroke-width="1.50459" stroke-miterlimit="10"/>
<path d="M256.219 20.2215L265.497 19.6086V26.85L256.219 26.2372C255.78 26.2372 255.417 24.899 255.417 23.2356C255.417 21.5722 255.78 20.2215 256.219 20.2215Z" fill="#D9D9D9" stroke="#727272" stroke-width="1.50459" stroke-miterlimit="10"/>
<path d="M253.674 19.4983H256.595C256.671 19.4988 256.746 19.5178 256.813 19.5538C256.879 19.5897 256.936 19.6414 256.978 19.7043C257.02 19.7673 257.046 19.8396 257.054 19.9148C257.061 19.9901 257.05 20.0661 257.022 20.1361C256.707 21.139 256.563 22.1874 256.595 23.2378C256.562 24.2841 256.706 25.3286 257.022 26.327C257.05 26.397 257.061 26.473 257.054 26.5482C257.046 26.6235 257.02 26.6958 256.978 26.7588C256.936 26.8217 256.879 26.8734 256.813 26.9093C256.746 26.9452 256.671 26.9643 256.595 26.9648H253.674C253.122 26.9648 252.671 25.2889 252.671 23.2128C252.671 21.1367 253.097 19.4983 253.674 19.4983Z" fill="#D9D9D9" stroke="#727272" stroke-width="1.50459" stroke-miterlimit="10"/>
<path d="M262.877 18.3104L283.026 17.3098V29.1662L262.877 28.1782C262.162 28.1782 261.623 25.9645 261.623 23.2505C261.623 20.5365 262.162 18.3104 262.877 18.3104Z" fill="#D9D9D9" stroke="#727272" stroke-width="1.50459" stroke-miterlimit="10"/>
<path d="M281.446 23.238C281.446 26.5023 282.161 29.1662 283.026 29.1662C283.891 29.1662 284.606 26.5023 284.606 23.238C284.606 19.9737 283.904 17.3098 283.026 17.3098C282.148 17.3098 281.446 19.9612 281.446 23.238Z" fill="#D9D9D9" stroke="#727272" stroke-width="1.50459" stroke-miterlimit="10"/>
<path d="M274.562 17.5954C274.562 17.5954 271.967 14.8064 271.001 14.8064C270.036 14.8064 268.494 17.3077 268.218 17.5954C267.942 17.8831 268.117 18.3583 269.171 18.4584C269.972 18.4322 270.747 18.1616 271.39 17.6829L274.562 17.5954Z" fill="#D9D9D9" stroke="#727272" stroke-width="1.50459" stroke-miterlimit="10"/>
<path d="M271.002 14.807C269.681 14.4679 268.327 14.2749 266.964 14.2317C266.187 14.4193 264.745 17.6835 265.033 18.1713C265.322 18.6591 268.218 17.596 268.218 17.596C268.218 17.596 270.137 14.7069 271.002 14.807Z" fill="#D9D9D9" stroke="#727272" stroke-width="1.50459" stroke-miterlimit="10"/>
<path d="M266.287 14.5194C266.287 14.5194 264.745 13.5563 263.98 14.2317C263.215 14.9071 261.573 17.2083 261.961 18.0713C262.35 18.9342 265.033 18.1713 265.033 18.1713C265.033 18.1713 265.635 14.807 266.287 14.5194Z" fill="#D9D9D9" stroke="#727272" stroke-width="1.50459" stroke-miterlimit="10"/>
<path d="M263.215 14.8046C263.215 14.8046 261.284 14.0417 260.607 14.8046C259.93 15.5676 258.213 17.9688 259.354 18.5567C260.495 19.1445 261.661 17.406 261.661 17.406L263.215 14.8046Z" fill="#D9D9D9" stroke="#727272" stroke-width="1.50459" stroke-miterlimit="10"/>
</g>
<defs>
<clipPath id="clip0_30_310">
<rect width="500" height="558" fill="white"/>
</clipPath>
</defs>
</svg>
