<svg xmlns="http://www.w3.org/2000/svg" width="446" height="467" fill="none" viewBox="0 0 446 467"><path fill="#3D8AA0" fill-rule="evenodd" d="M247.359 307.568c-4.485-5.843-3.383-14.222 2.46-18.707 5.844-4.484 14.223-3.382 18.708 2.461 4.484 5.843 3.382 14.222-2.461 18.707-5.843 4.485-14.208 3.401-18.707-2.461Z" clip-rule="evenodd"/><path fill="#F8D552" d="M229.614 49.594c4.486 5.846 12.862 6.947 18.707 2.46 5.845-4.485 6.947-12.86 2.46-18.706-4.486-5.845-12.861-6.947-18.707-2.46-5.845 4.486-6.947 12.861-2.46 18.706Z"/><path fill="#B7BF46" fill-rule="evenodd" d="M96.521 421.723c-4.485-5.843-3.383-14.223 2.46-18.707 5.844-4.485 14.223-3.383 18.708 2.46 4.484 5.843 3.382 14.223-2.461 18.707-5.843 4.485-14.208 3.401-18.707-2.46Z" clip-rule="evenodd"/><circle cx="429.54" cy="223.236" r="9.697" stroke="#FF9D01" stroke-width="3" transform="rotate(-37.507 429.54 223.236)"/><path fill="#A349A8" d="M109.108 203.268a8.656 8.656 0 1 0 1.596-12.137 8.656 8.656 0 0 0-1.596 12.137Z"/><path fill="#3D8AA0" d="m335.443 266.888-.59.807.808.59.59-.808-.808-.589Zm-6.505-4.753.59-.808-.807-.59-.59.808.807.59Zm7.685 3.138.808.59.59-.808-.808-.59-.59.808Zm-6.505-4.753-.807-.59-.59.807.807.59.59-.807Zm4.754-6.506.807.59.59-.808-.807-.589-.59.807Zm-1.615-1.18.59-.807-.808-.59-.589.807.807.59Zm-4.754 6.506-.589.807.807.59.59-.807-.808-.59Zm-6.506-4.754.59-.807-.807-.59-.59.807.807.59Zm-1.18 1.615-.807-.59-.59.808.807.59.59-.808Zm6.507 4.754.807.59.59-.808-.807-.59-.59.808Zm-4.753 6.505-.808-.59-.59.807.808.59.59-.807Zm1.614 1.18-.59.807.808.59.59-.807-.808-.59Zm11.848-2.56-6.505-4.753-1.18 1.615 6.505 4.753 1.18-1.615Zm-.217-1.397-1.18 1.615 1.615 1.179 1.18-1.614-1.615-1.18Zm-6.288-3.356 6.505 4.753 1.18-1.615-6.505-4.753-1.18 1.615Zm4.536-7.903-4.753 6.506 1.615 1.18 4.753-6.506-1.615-1.18Zm-1.397.218 1.615 1.179 1.18-1.614-1.615-1.18-1.18 1.615Zm-3.356 6.288 4.753-6.506-1.614-1.18-4.754 6.506 1.615 1.18Zm-7.904-4.536 6.507 4.753 1.179-1.615-6.506-4.753-1.18 1.615Zm.218 1.397 1.18-1.615-1.615-1.18-1.18 1.615 1.615 1.18Zm6.289 3.356-6.507-4.753-1.18 1.615 6.507 4.753 1.18-1.615Zm-4.536 7.903 4.753-6.505-1.615-1.18-4.753 6.505 1.615 1.18Zm1.397-.218-1.614-1.179-1.18 1.614 1.614 1.18 1.18-1.615Zm3.356-6.287-4.753 6.505 1.615 1.18 4.753-6.505-1.615-1.18Z"/></svg>