<svg xmlns="http://www.w3.org/2000/svg" width="392" height="510" fill="none" viewBox="0 0 392 510"><path fill="#A349A8" fill-rule="evenodd" d="M214.582 201.575c5.208 5.209 5.208 13.66 0 18.869-5.209 5.208-13.66 5.208-18.869 0-5.208-5.209-5.208-13.66 0-18.869 5.209-5.208 13.644-5.225 18.869 0Z" clip-rule="evenodd"/><path fill="#FF6462" d="M265.818 455.032c-5.21-5.21-13.658-5.21-18.868 0-5.211 5.211-5.211 13.658 0 18.868 5.21 5.211 13.658 5.211 18.868 0 5.21-5.21 5.21-13.657 0-18.868Z"/><path fill="#F8D552" fill-rule="evenodd" d="M349.246 68.725c5.208 5.209 5.208 13.66 0 18.869-5.209 5.208-13.66 5.208-18.869 0-5.208-5.209-5.208-13.66 0-18.869 5.209-5.208 13.644-5.225 18.869 0Z" clip-rule="evenodd"/><circle cx="44.954" cy="308.945" r="9.697" stroke="#FF9D01" stroke-width="3" transform="rotate(135 44.954 308.945)"/><path fill="#55BAD0" d="M256.363 315.121a8.657 8.657 0 1 0-12.24 12.242 8.657 8.657 0 0 0 12.24-12.242Z"/><path fill="#FF6462" d="m132.823 151.069.48-.877-.878-.48-.479.878.877.479Zm7.07 3.864-.48.878.877.479.48-.877-.877-.48Zm-8.029-2.109-.877-.479-.48.877.878.48.479-.878Zm7.069 3.864.878.48.479-.878-.877-.479-.48.877Zm-3.864 7.07-.878-.479-.479.877.877.48.48-.878Zm1.755.96-.48.877.878.48.479-.878-.877-.479Zm3.864-7.07.48-.878-.878-.48-.479.878.877.48Zm7.071 3.864-.48.878.878.479.479-.877-.877-.48Zm.959-1.755.877.48.48-.878-.877-.479-.48.877Zm-7.071-3.864-.877-.48-.48.877.878.48.479-.877Zm3.865-7.07.877.48.48-.878-.878-.479-.479.877Zm-1.755-.959.479-.878-.877-.479-.48.877.878.48Zm-11.413 4.083 7.069 3.864.959-1.755-7.069-3.864-.959 1.755Zm.398 1.357.959-1.755-1.755-.959-.959 1.755 1.755.959Zm6.671 2.507-7.069-3.864-.959 1.755 7.069 3.864.959-1.755Zm-3.467 8.427 3.865-7.07-1.755-.959-3.865 7.07 1.755.959Zm1.357-.398-1.755-.959-.959 1.755 1.755.959.959-1.755Zm2.508-6.672-3.865 7.07 1.755.959 3.865-7.07-1.755-.959Zm8.427 3.467-7.07-3.865-.959 1.755 7.07 3.865.959-1.755Zm-.398-1.357-.959 1.755 1.755.959.959-1.755-1.755-.959Zm-6.672-2.508 7.07 3.865.96-1.755-7.071-3.865-.959 1.755Zm3.466-8.427-3.864 7.07 1.755.959 3.864-7.069-1.755-.96Zm-1.357.398 1.755.96.959-1.755-1.755-.96-.959 1.755Zm-2.507 6.672 3.864-7.07-1.755-.959-3.864 7.07 1.755.959Z"/></svg>