<?xml version="1.0" encoding="UTF-8" standalone="no"?>
<!-- Created with Inkscape (http://www.inkscape.org/) -->

<svg
   version="1.1"
   id="svg1"
   width="880"
   height="880"
   viewBox="0 0 880 880"
   sodipodi:docname="cv-with-photo-publicdomainvectors.org.svg"
   inkscape:version="1.3.2 (091e20e, 2023-11-25, custom)"
   xmlns:inkscape="http://www.inkscape.org/namespaces/inkscape"
   xmlns:sodipodi="http://sodipodi.sourceforge.net/DTD/sodipodi-0.dtd"
   xmlns="http://www.w3.org/2000/svg"
   xmlns:svg="http://www.w3.org/2000/svg">
  <defs
     id="defs1">
    <clipPath
       clipPathUnits="userSpaceOnUse"
       id="clipPath3">
      <path
         d="M 0,660 H 660 V 0 H 0 Z"
         transform="translate(-313.49121,-166.71)"
         id="path3" />
    </clipPath>
    <clipPath
       clipPathUnits="userSpaceOnUse"
       id="clipPath5">
      <path
         d="M 0,660 H 660 V 0 H 0 Z"
         transform="translate(-588.67681,-219.02341)"
         id="path5" />
    </clipPath>
    <clipPath
       clipPathUnits="userSpaceOnUse"
       id="clipPath7">
      <path
         d="M 0,660 H 660 V 0 H 0 Z"
         transform="translate(-336.48441,-422.91851)"
         id="path7" />
    </clipPath>
    <clipPath
       clipPathUnits="userSpaceOnUse"
       id="clipPath9">
      <path
         d="M 0,660 H 660 V 0 H 0 Z"
         transform="translate(-179.4106,-210.45901)"
         id="path9" />
    </clipPath>
    <clipPath
       clipPathUnits="userSpaceOnUse"
       id="clipPath11">
      <path
         d="M 0,660 H 660 V 0 H 0 Z"
         transform="translate(-67.405802,-208.97461)"
         id="path11" />
    </clipPath>
    <clipPath
       clipPathUnits="userSpaceOnUse"
       id="clipPath13">
      <path
         d="M 0,660 H 660 V 0 H 0 Z"
         transform="translate(-356.18551,-177.8271)"
         id="path13" />
    </clipPath>
    <clipPath
       clipPathUnits="userSpaceOnUse"
       id="clipPath15">
      <path
         d="M 0,660 H 660 V 0 H 0 Z"
         transform="translate(-356.44241,-208.97461)"
         id="path15" />
    </clipPath>
    <clipPath
       clipPathUnits="userSpaceOnUse"
       id="clipPath17">
      <path
         d="M 0,660 H 660 V 0 H 0 Z"
         transform="translate(-326.33791,-413.72851)"
         id="path17" />
    </clipPath>
    <clipPath
       clipPathUnits="userSpaceOnUse"
       id="clipPath19">
      <path
         d="M 0,660 H 660 V 0 H 0 Z"
         transform="translate(-511.78912,-198.56931)"
         id="path19" />
    </clipPath>
    <clipPath
       clipPathUnits="userSpaceOnUse"
       id="clipPath21">
      <path
         d="M 0,660 H 660 V 0 H 0 Z"
         transform="translate(-458.05661,-198.56931)"
         id="path21" />
    </clipPath>
    <clipPath
       clipPathUnits="userSpaceOnUse"
       id="clipPath23">
      <path
         d="M 0,660 H 660 V 0 H 0 Z"
         transform="translate(-383.51951,-504.42581)"
         id="path23" />
    </clipPath>
    <clipPath
       clipPathUnits="userSpaceOnUse"
       id="clipPath25">
      <path
         d="M 0,660 H 660 V 0 H 0 Z"
         transform="translate(-392.90231,-489.13131)"
         id="path25" />
    </clipPath>
    <clipPath
       clipPathUnits="userSpaceOnUse"
       id="clipPath27">
      <path
         d="M 0,660 H 660 V 0 H 0 Z"
         transform="translate(-410.65431,-400.68311)"
         id="path27" />
    </clipPath>
    <clipPath
       clipPathUnits="userSpaceOnUse"
       id="clipPath29">
      <path
         d="M 0,660 H 660 V 0 H 0 Z"
         transform="translate(-369.75201,-364.30661)"
         id="path29" />
    </clipPath>
    <clipPath
       clipPathUnits="userSpaceOnUse"
       id="clipPath31">
      <path
         d="M 0,660 H 660 V 0 H 0 Z"
         transform="translate(-425.34281,-473.96141)"
         id="path31" />
    </clipPath>
    <clipPath
       clipPathUnits="userSpaceOnUse"
       id="clipPath33">
      <path
         d="M 0,660 H 660 V 0 H 0 Z"
         transform="translate(-407.69041,-473.96141)"
         id="path33" />
    </clipPath>
    <clipPath
       clipPathUnits="userSpaceOnUse"
       id="clipPath35">
      <path
         d="M 0,660 H 660 V 0 H 0 Z"
         transform="translate(-424.14651,-466.68551)"
         id="path35" />
    </clipPath>
    <clipPath
       clipPathUnits="userSpaceOnUse"
       id="clipPath37">
      <path
         d="M 0,660 H 660 V 0 H 0 Z"
         transform="translate(-408.71781,-458.70611)"
         id="path37" />
    </clipPath>
    <clipPath
       clipPathUnits="userSpaceOnUse"
       id="clipPath39">
      <path
         d="M 0,660 H 660 V 0 H 0 Z"
         transform="translate(-408.71781,-458.70611)"
         id="path39" />
    </clipPath>
    <clipPath
       clipPathUnits="userSpaceOnUse"
       id="clipPath41">
      <path
         d="M 0,660 H 660 V 0 H 0 Z"
         transform="translate(-417.93551,-477.81641)"
         id="path41" />
    </clipPath>
    <clipPath
       clipPathUnits="userSpaceOnUse"
       id="clipPath43">
      <path
         d="M 0,660 H 660 V 0 H 0 Z"
         transform="translate(-406.14261,-448.64791)"
         id="path43" />
    </clipPath>
    <clipPath
       clipPathUnits="userSpaceOnUse"
       id="clipPath45">
      <path
         d="M 0,660 H 660 V 0 H 0 Z"
         transform="translate(-418.57521,-480.31841)"
         id="path45" />
    </clipPath>
    <clipPath
       clipPathUnits="userSpaceOnUse"
       id="clipPath47">
      <path
         d="M 0,660 H 660 V 0 H 0 Z"
         transform="translate(-404.16601,-441.58251)"
         id="path47" />
    </clipPath>
    <clipPath
       clipPathUnits="userSpaceOnUse"
       id="clipPath49">
      <path
         d="M 0,660 H 660 V 0 H 0 Z"
         transform="translate(-557.12501,-369.16601)"
         id="path49" />
    </clipPath>
    <clipPath
       clipPathUnits="userSpaceOnUse"
       id="clipPath51">
      <path
         d="M 0,660 H 660 V 0 H 0 Z"
         transform="translate(-522.76072,-383.83981)"
         id="path51" />
    </clipPath>
    <clipPath
       clipPathUnits="userSpaceOnUse"
       id="clipPath53">
      <path
         d="M 0,660 H 660 V 0 H 0 Z"
         transform="translate(-513.14452,-392.45901)"
         id="path53" />
    </clipPath>
    <clipPath
       clipPathUnits="userSpaceOnUse"
       id="clipPath55">
      <path
         d="M 0,660 H 660 V 0 H 0 Z"
         transform="translate(-511.50781,-381.35941)"
         id="path55" />
    </clipPath>
    <clipPath
       clipPathUnits="userSpaceOnUse"
       id="clipPath57">
      <path
         d="M 0,660 H 660 V 0 H 0 Z"
         transform="translate(-537.40631,-372.19731)"
         id="path57" />
    </clipPath>
    <clipPath
       clipPathUnits="userSpaceOnUse"
       id="clipPath59">
      <path
         d="M 0,660 H 660 V 0 H 0 Z"
         transform="translate(-537.40631,-372.19731)"
         id="path59" />
    </clipPath>
    <clipPath
       clipPathUnits="userSpaceOnUse"
       id="clipPath61">
      <path
         d="M 0,660 H 660 V 0 H 0 Z"
         transform="translate(-500.65531,-370.35841)"
         id="path61" />
    </clipPath>
    <clipPath
       clipPathUnits="userSpaceOnUse"
       id="clipPath63">
      <path
         d="M 0,660 H 660 V 0 H 0 Z"
         transform="translate(-517.54691,-374.04301)"
         id="path63" />
    </clipPath>
    <clipPath
       clipPathUnits="userSpaceOnUse"
       id="clipPath65">
      <path
         d="M 0,660 H 660 V 0 H 0 Z"
         transform="translate(-502.48732,-357.98931)"
         id="path65" />
    </clipPath>
  </defs>
  <sodipodi:namedview
     id="namedview1"
     pagecolor="#ffffff"
     bordercolor="#000000"
     borderopacity="0.25"
     inkscape:showpageshadow="2"
     inkscape:pageopacity="0.0"
     inkscape:pagecheckerboard="0"
     inkscape:deskcolor="#d1d1d1"
     inkscape:zoom="0.67272727"
     inkscape:cx="439.25676"
     inkscape:cy="440"
     inkscape:window-width="1440"
     inkscape:window-height="830"
     inkscape:window-x="-6"
     inkscape:window-y="-6"
     inkscape:window-maximized="1"
     inkscape:current-layer="g1">
    <inkscape:page
       x="0"
       y="0"
       inkscape:label="1"
       id="page1"
       width="880"
       height="880"
       margin="222.28 30.924 207.43201 31.776667"
       bleed="0" />
  </sodipodi:namedview>
  <g
     id="g1"
     inkscape:groupmode="layer"
     inkscape:label="1">
    <g
       id="group-MC0">
      <path
         id="path2"
         d="m 0,0 c 159.537,0 289.657,4.993 289.657,11.117 0,6.122 -130.12,11.116 -289.657,11.116 -159.539,0 -289.659,-4.994 -289.659,-11.116 C -289.659,4.993 -159.539,0 0,0"
         style="fill:#9ac421;fill-opacity:1;fill-rule:evenodd;stroke:none"
         transform="matrix(1.3333333,0,0,-1.3333333,417.98827,657.72)"
         clip-path="url(#clipPath3)" />
      <path
         id="path4"
         d="m 0,0 47.642,189.047 c 2.43,9.65 -4.584,14.713 -12.813,14.88 L 12.146,203.925 -22.579,-14.132 C -13.912,-15.438 -2.738,-10.868 0,0"
         style="fill:#d7c9c4;fill-opacity:1;fill-rule:evenodd;stroke:none"
         transform="matrix(1.3333333,0,0,-1.3333333,784.9024,587.9688)"
         clip-path="url(#clipPath5)" />
      <path
         id="path6"
         d="m 0,0 c -8.357,0.493 -18.27,-4.166 -20.83,-14.315 l -47.639,-189.048 c -2.477,-9.82 4.835,-14.887 13.248,-14.881 v -0.002 l 284.834,0.215 54.526,207.115 c 0.681,2.584 0.072,5.223 -1.728,7.472 -1.797,2.248 -4.28,3.476 -7.028,3.475 L 0.002,0.002 Z"
         style="fill:#463d3b;fill-opacity:1;fill-rule:evenodd;stroke:none"
         transform="matrix(1.3333333,0,0,-1.3333333,448.64587,316.10867)"
         clip-path="url(#clipPath7)" />
      <path
         id="path8"
         d="m 0,0 h 330.933 c 0.815,0 1.482,-0.668 1.482,-1.484 v -10.157 c 0,-0.816 -0.667,-1.483 -1.482,-1.483 H 0 c -0.816,0 -1.483,0.667 -1.483,1.483 V -1.484 C -1.483,-0.668 -0.816,0 0,0"
         style="fill:#766864;fill-opacity:1;fill-rule:evenodd;stroke:none"
         transform="matrix(1.3333333,0,0,-1.3333333,239.21413,599.388)"
         clip-path="url(#clipPath9)" />
      <path
         id="path10"
         d="m 0,0 h 312.983 c 20.388,0 10.575,-31.147 -10.312,-31.147 H -10.312 C -30.698,-31.147 -20.886,0 0,0"
         style="fill:#b2a29e;fill-opacity:1;fill-rule:evenodd;stroke:none"
         transform="matrix(1.3333333,0,0,-1.3333333,89.8744,601.3672)"
         clip-path="url(#clipPath11)" />
      <path
         id="path12"
         d="m 0,0 h -299.091 c -7.206,0 -10.636,3.895 -11.14,8.925 H 0 Z"
         style="fill:#a2908d;fill-opacity:1;fill-rule:evenodd;stroke:none"
         transform="matrix(1.3333333,0,0,-1.3333333,474.914,642.8972)"
         clip-path="url(#clipPath13)" />
      <path
         id="path14"
         d="m 0,0 h 200.238 c 20.388,0 10.575,-31.147 -10.311,-31.147 H -10.314 C -30.699,-31.147 -20.889,0 0,0"
         style="fill:#d7c9c4;fill-opacity:1;fill-rule:evenodd;stroke:none"
         transform="matrix(1.3333333,0,0,-1.3333333,475.25653,601.3672)"
         clip-path="url(#clipPath15)" />
      <path
         id="path16"
         d="m 0,0 h 278.304 c 1.779,0 2.875,-1.456 2.43,-3.236 L 234.15,-190.692 c -0.442,-1.782 -2.259,-3.238 -4.041,-3.238 H -48.194 c -1.782,0 -2.875,1.456 -2.433,3.238 L -4.041,-3.236 C -3.599,-1.456 -1.781,0 0,0"
         style="fill:#4ba5ce;fill-opacity:1;fill-rule:evenodd;stroke:none"
         transform="matrix(1.3333333,0,0,-1.3333333,435.1172,328.362)"
         clip-path="url(#clipPath17)" />
      <path
         id="path18"
         d="m 0,0 h 33.219 c 6.763,0 3.509,-10.336 -3.422,-10.336 H -3.422 C -10.185,-10.336 -6.932,0 0,0"
         style="fill:#766864;fill-opacity:1;fill-rule:evenodd;stroke:none"
         transform="matrix(1.3333333,0,0,-1.3333333,682.38547,615.24093)"
         clip-path="url(#clipPath19)" />
      <path
         id="path20"
         d="m 0,0 h 33.218 c 6.765,0 3.509,-10.336 -3.421,-10.336 H -3.422 C -10.185,-10.336 -6.931,0 0,0"
         style="fill:#766864;fill-opacity:1;fill-rule:evenodd;stroke:none"
         transform="matrix(1.3333333,0,0,-1.3333333,610.74213,615.24093)"
         clip-path="url(#clipPath21)" />
      <path
         id="path22"
         d="M 0,0 H 204.823 L 131.941,-284.627 H -72.885 Z"
         style="fill:#e8e8e7;fill-opacity:1;fill-rule:evenodd;stroke:none"
         transform="matrix(1.3333333,0,0,-1.3333333,511.35933,207.43227)"
         clip-path="url(#clipPath23)" />
      <path
         id="path24"
         d="M 0,0 H 55.859 L 39.682,-63.177 h -55.859 z"
         style="fill:#cdcccb;fill-opacity:1;fill-rule:evenodd;stroke:none"
         transform="matrix(1.3333333,0,0,-1.3333333,523.86973,227.82493)"
         clip-path="url(#clipPath25)" />
      <path
         id="path26"
         d="M 0,0 H 97.424 L 95.806,-6.318 H -1.619 Z m 62.852,83.792 h 77.806 L 137.764,72.487 H 59.957 Z"
         style="fill:#7a7c7d;fill-opacity:1;fill-rule:evenodd;stroke:none"
         transform="matrix(1.3333333,0,0,-1.3333333,547.53907,345.75587)"
         clip-path="url(#clipPath27)" />
      <path
         id="path28"
         d="m 0,0 h 160.598 c -0.54,-2.105 -1.078,-4.213 -1.617,-6.317 H -1.619 C -1.08,-4.213 -0.539,-2.105 0,0 m -3.169,-12.369 h 160.601 c -0.54,-2.106 -1.079,-4.212 -1.62,-6.317 H -4.785 c 0.539,2.105 1.078,4.211 1.616,6.317 m -3.167,-12.369 h 160.601 c -0.54,-2.106 -1.08,-4.212 -1.619,-6.318 H -7.953 c 0.538,2.106 1.077,4.212 1.617,6.318 m -3.166,-12.369 h 160.599 c -0.539,-2.108 -1.079,-4.212 -1.619,-6.318 H -11.12 c 0.538,2.106 1.077,4.21 1.618,6.318 m -3.168,-12.37 h 160.6 c -0.54,-2.106 -1.08,-4.211 -1.619,-6.318 h -160.6 c 0.541,2.107 1.08,4.212 1.619,6.318 m -3.169,-12.369 h 160.601 c -0.539,-2.107 -1.079,-4.212 -1.619,-6.318 H -17.455 c 0.539,2.106 1.078,4.211 1.616,6.318 m -3.166,-12.369 h 160.6 c -0.538,-2.106 -1.079,-4.212 -1.619,-6.318 H -20.623 c 0.538,2.106 1.079,4.212 1.618,6.318 m -3.167,-12.369 h 160.599 c -0.539,-2.107 -1.078,-4.212 -1.617,-6.318 h -160.6 c 0.539,2.106 1.077,4.211 1.618,6.318 m -3.168,-12.371 h 160.6 l -1.618,-6.316 H -26.957 Z M 6.334,24.739 h 160.6 l -1.618,-6.318 H 4.717 Z m 76.713,52.869 h 97.424 c -0.538,-2.105 -1.078,-4.211 -1.617,-6.317 H 81.431 c 0.539,2.106 1.077,4.212 1.616,6.317 M 80.152,66.304 h 97.426 L 175.96,59.986 H 78.533 Z m 8.685,33.915 h 97.424 l -1.617,-6.318 H 87.219 Z M 85.942,88.913 h 97.424 c -0.539,-2.106 -1.078,-4.212 -1.616,-6.318 H 84.323 c 0.539,2.106 1.08,4.212 1.619,6.318 M 3.166,12.369 h 160.601 c -0.54,-2.105 -1.079,-4.213 -1.62,-6.317 H 1.548 c 0.54,2.104 1.079,4.212 1.618,6.317"
         style="fill:#b2b1b0;fill-opacity:1;fill-rule:evenodd;stroke:none"
         transform="matrix(1.3333333,0,0,-1.3333333,493.00267,394.25787)"
         clip-path="url(#clipPath29)" />
      <path
         id="path30"
         d="m 0,0 c 1.835,0 2.667,-2.567 1.855,-5.732 -0.81,-3.166 -2.956,-5.733 -4.793,-5.733 -1.835,0 -2.665,2.567 -1.855,5.733 C -3.983,-2.567 -1.836,0 0,0"
         style="fill:#1c1a19;fill-opacity:1;fill-rule:evenodd;stroke:none"
         transform="matrix(1.3333333,0,0,-1.3333333,567.12373,248.05147)"
         clip-path="url(#clipPath31)" />
      <path
         id="path32"
         d="m 0,0 c 1.836,0 2.668,-2.567 1.857,-5.732 -0.809,-3.166 -2.957,-5.733 -4.792,-5.733 -1.836,0 -2.668,2.567 -1.858,5.733 C -3.982,-2.567 -1.835,0 0,0"
         style="fill:#1c1a19;fill-opacity:1;fill-rule:evenodd;stroke:none"
         transform="matrix(1.3333333,0,0,-1.3333333,543.5872,248.05147)"
         clip-path="url(#clipPath33)" />
      <path
         id="path34"
         d="m 0,0 c 1.191,0 1.835,-1.265 1.438,-2.827 -0.401,-1.56 -1.692,-2.826 -2.886,-2.826 -1.195,0 -1.837,1.266 -1.438,2.826 C -2.485,-1.265 -1.194,0 0,0 m -18.122,0 c 1.191,0 1.835,-1.265 1.435,-2.827 -0.398,-1.56 -1.691,-2.826 -2.883,-2.826 -1.195,0 -1.837,1.266 -1.438,2.826 0.401,1.562 1.692,2.827 2.886,2.827"
         style="fill:#f28f62;fill-opacity:1;fill-rule:evenodd;stroke:none"
         transform="matrix(1.3333333,0,0,-1.3333333,565.52867,257.75267)"
         clip-path="url(#clipPath35)" />
      <path
         id="path36"
         d="M 0,0 H 8.646 L 5.73,-11.388 0.887,-13.425 -2.915,-11.388 Z"
         style="fill:#f5a683;fill-opacity:1;fill-rule:evenodd;stroke:none"
         transform="matrix(1.3333333,0,0,-1.3333333,544.95707,268.39187)"
         clip-path="url(#clipPath37)" />
      <path
         id="path38"
         d="M 0,0 H 8.646 L 6.886,-6.874 C 5.86,-7.241 4.817,-7.44 3.79,-7.44 c -2.123,0 -3.872,0.846 -5.108,2.283 z"
         style="fill:#f28f62;fill-opacity:1;fill-rule:evenodd;stroke:none"
         transform="matrix(1.3333333,0,0,-1.3333333,544.95707,268.39187)"
         clip-path="url(#clipPath39)" />
      <path
         id="path40"
         d="M 0,0 C 5.416,0 8.399,-5.506 6.659,-12.299 4.92,-19.09 -0.882,-24.597 -6.299,-24.597 c -5.418,0 -8.399,5.507 -6.66,12.298 C -11.218,-5.506 -5.418,0 0,0"
         style="fill:#f5a683;fill-opacity:1;fill-rule:evenodd;stroke:none"
         transform="matrix(1.3333333,0,0,-1.3333333,557.24733,242.91147)"
         clip-path="url(#clipPath41)" />
      <path
         id="path42"
         d="m 0,0 -2.579,-0.332 -1.58,-3.016 -13.619,-6.851 -6.573,-12.541 22.861,0.043 22.841,-0.043 -0.149,12.541 -10.11,6.851 -0.036,3.016 L 8.645,0 3.462,-3.367 Z"
         style="fill:#ffffff;fill-opacity:1;fill-rule:evenodd;stroke:none"
         transform="matrix(1.3333333,0,0,-1.3333333,541.52347,281.8028)"
         clip-path="url(#clipPath43)" />
      <path
         id="path44"
         d="m 0,0 c 5.082,0 8.587,-2.4 7.829,-5.362 -0.759,-2.962 -5.493,-5.364 -10.575,-5.364 -5.081,0 -8.587,2.402 -7.827,5.364 C -9.815,-2.4 -5.08,0 0,0"
         style="fill:#1c1a19;fill-opacity:1;fill-rule:evenodd;stroke:none"
         transform="matrix(1.3333333,0,0,-1.3333333,558.10027,239.57547)"
         clip-path="url(#clipPath45)" />
      <path
         id="path46"
         d="M 0,0 1.629,2.95 4.906,1.62 8.862,2.95 8.98,0 8.156,1.33 6.486,-0.167 4.926,-3.825 6.143,-15.632 H 0.486 -5.167 L 2.098,-3.825 2.411,-0.167 1.504,1.33 Z"
         style="fill:#1c1a19;fill-opacity:1;fill-rule:evenodd;stroke:none"
         transform="matrix(1.3333333,0,0,-1.3333333,538.888,291.22333)"
         clip-path="url(#clipPath47)" />
      <path
         id="path48"
         d="m 0,0 c -3.297,-3.191 -8.842,-2.853 -12.383,0.752 -3.542,3.606 -3.741,9.118 -0.444,12.309 l 69.168,66.813 c 3.297,3.191 8.842,2.854 12.382,-0.752 3.541,-3.606 3.739,-9.118 0.444,-12.31 z"
         style="fill:#463d3b;fill-opacity:1;fill-rule:evenodd;stroke:none"
         transform="matrix(1.3333333,0,0,-1.3333333,742.83333,387.77867)"
         clip-path="url(#clipPath49)" />
      <path
         id="path50"
         d="m 0,0 c 31.039,0 52.49,-25.163 47.912,-56.202 -4.577,-31.039 -33.451,-56.202 -64.49,-56.202 -31.04,0 -52.491,25.163 -47.913,56.202 C -59.913,-25.163 -31.04,0 0,0"
         style="fill:#766864;fill-opacity:1;fill-rule:evenodd;stroke:none"
         transform="matrix(1.3333333,0,0,-1.3333333,697.01427,368.2136)"
         clip-path="url(#clipPath51)" />
      <path
         id="path52"
         d="m 0,0 c 31.039,0 52.49,-25.162 47.913,-56.202 -4.576,-31.039 -33.452,-56.201 -64.491,-56.201 -31.039,0 -52.491,25.162 -47.913,56.201 C -59.913,-25.162 -31.039,0 0,0"
         style="fill:#463d3b;fill-opacity:1;fill-rule:evenodd;stroke:none"
         transform="matrix(1.3333333,0,0,-1.3333333,684.19267,356.72133)"
         clip-path="url(#clipPath53)" />
      <path
         id="path54"
         d="m 0,0 c 24.909,0 42.125,-20.192 38.452,-45.103 -3.676,-24.909 -26.847,-45.102 -51.757,-45.102 -24.91,0 -42.125,20.193 -38.45,45.102 C -48.082,-20.192 -24.909,0 0,0"
         style="fill:#3b9ba2;fill-opacity:1;fill-rule:evenodd;stroke:none"
         transform="matrix(1.3333333,0,0,-1.3333333,682.0104,371.5208)"
         clip-path="url(#clipPath55)" />
      <path
         id="path56"
         d="m 0,0 c 9.632,-8.237 14.717,-21.27 12.552,-35.94 -3.674,-24.91 -26.844,-45.103 -51.753,-45.103 -5.699,0 -10.993,1.06 -15.728,2.987 -9.631,8.237 -14.715,21.27 -12.552,35.94 3.673,24.909 26.846,45.102 51.755,45.102 C -10.028,2.986 -4.734,1.928 0,0"
         style="fill:#54c6c8;fill-opacity:1;fill-rule:evenodd;stroke:none"
         transform="matrix(1.3333333,0,0,-1.3333333,716.54173,383.73693)"
         clip-path="url(#clipPath57)" />
      <path
         id="path58"
         d="M 0,0 C 5.923,-5.065 10.125,-11.945 11.982,-19.903 L 1.551,-60.636 c -9.87,-12.288 -24.96,-20.407 -40.752,-20.407 -5.699,0 -10.993,1.06 -15.728,2.987 -9.631,8.237 -14.715,21.27 -12.552,35.94 3.673,24.909 26.846,45.102 51.755,45.102 C -10.028,2.986 -4.734,1.928 0,0"
         style="fill:#64cbd1;fill-opacity:1;fill-rule:evenodd;stroke:none"
         transform="matrix(1.3333333,0,0,-1.3333333,716.54173,383.73693)"
         clip-path="url(#clipPath59)" />
      <path
         id="path60"
         d="m 0,0 c 6.561,3.085 13.718,4.825 21.025,4.825 3.903,0 7.616,-0.497 11.09,-1.429 L 31.244,0 Z m -16.943,-12.369 c 2.15,2.297 4.493,4.412 6.992,6.317 h 39.645 c -0.539,-2.105 -1.077,-4.213 -1.616,-6.317 z m -8.746,-12.369 c 1.128,2.191 2.411,4.299 3.828,6.317 h 48.389 c -0.539,-2.106 -1.08,-4.212 -1.619,-6.317 z m -4.459,-12.369 c 0.466,2.15 1.078,4.259 1.821,6.317 h 51.688 c -0.54,-2.106 -1.079,-4.212 -1.618,-6.317 z m -0.997,-12.37 c -0.125,2.058 -0.099,4.166 0.082,6.318 h 51.256 c -0.539,-2.108 -1.078,-4.212 -1.616,-6.318 z m 2.717,-12.37 c -0.801,2.018 -1.441,4.129 -1.905,6.319 h 47.359 c -0.54,-2.107 -1.079,-4.212 -1.618,-6.319 z m 8.093,-12.369 c -1.898,1.91 -3.579,4.026 -5.02,6.319 h 39.213 c -0.539,-2.108 -1.078,-4.212 -1.618,-6.319 z"
         style="fill:#4fc3c6;fill-opacity:1;fill-rule:evenodd;stroke:none"
         transform="matrix(1.3333333,0,0,-1.3333333,667.5404,386.1888)"
         clip-path="url(#clipPath61)" />
      <path
         id="path62"
         d="M 0,0 C 11.092,1.059 22.683,-7.738 25.889,-19.651 29.096,-31.565 22.704,-42.079 11.612,-43.14 0.521,-44.198 -11.071,-35.4 -14.275,-23.487 -17.482,-11.574 -11.091,-1.059 0,0"
         style="fill:#ade4ea;fill-opacity:1;fill-rule:evenodd;stroke:none"
         transform="matrix(1.3333333,0,0,-1.3333333,690.06253,381.276)"
         clip-path="url(#clipPath63)" />
      <path
         id="path64"
         d="M 0,0 C 0.145,2.264 0.657,4.393 1.493,6.317 H 27.862 C 27.323,4.212 26.785,2.104 26.246,0 Z m 2.666,-12.369 c -0.784,1.567 -1.422,3.219 -1.884,4.935 -0.125,0.463 -0.233,0.923 -0.328,1.382 h 24.242 c -0.539,-2.106 -1.08,-4.212 -1.619,-6.317 z M 14.97,-24.738 c -3.042,1.515 -5.851,3.678 -8.197,6.317 h 14.756 c -0.54,-2.105 -1.079,-4.212 -1.618,-6.317 z m 0.09,40.792 c 4.839,0.462 9.775,-0.954 14.067,-3.685 H 5.987 c 2.43,2.026 5.508,3.345 9.073,3.685"
         style="fill:#8bd9de;fill-opacity:1;fill-rule:evenodd;stroke:none"
         transform="matrix(1.3333333,0,0,-1.3333333,669.98307,402.68093)"
         clip-path="url(#clipPath65)" />
    </g>
  </g>
</svg>
