<svg width="24" height="24" viewBox="0 0 24 24" fill="none" xmlns="http://www.w3.org/2000/svg">
<path fill-rule="evenodd" clip-rule="evenodd" d="M14.385 15.446C13.037 16.5231 11.3277 17.0432 9.60817 16.8994C7.88868 16.7555 6.28952 15.9588 5.13913 14.6727C3.98874 13.3867 3.37446 11.7089 3.42244 9.98409C3.47043 8.25926 4.17704 6.61827 5.39716 5.39816C6.61727 4.17805 8.25826 3.47144 9.98309 3.42345C11.7079 3.37546 13.3857 3.98975 14.6717 5.14014C15.9578 6.29052 16.7545 7.88969 16.8983 9.60918C17.0422 11.3287 16.5221 13.038 15.445 14.386L20.601 19.541C20.6747 19.6097 20.7338 19.6925 20.7748 19.7845C20.8158 19.8765 20.8378 19.9758 20.8396 20.0765C20.8414 20.1772 20.8228 20.2772 20.7851 20.3706C20.7474 20.464 20.6913 20.5488 20.62 20.62C20.5488 20.6913 20.464 20.7474 20.3706 20.7851C20.2772 20.8228 20.1772 20.8414 20.0765 20.8396C19.9758 20.8378 19.8765 20.8158 19.7845 20.7748C19.6925 20.7338 19.6097 20.6747 19.541 20.601L14.385 15.446ZM6.46 13.884C5.72604 13.15 5.22615 12.2148 5.02351 11.1968C4.82087 10.1787 4.92457 9.12344 5.32151 8.1643C5.71845 7.20517 6.39081 6.38523 7.25361 5.80811C8.11642 5.23098 9.13094 4.92259 10.169 4.92189C11.207 4.92119 12.2219 5.22822 13.0855 5.80418C13.9491 6.38014 14.6226 7.19918 15.0208 8.15778C15.419 9.11638 15.5241 10.1715 15.3229 11.1898C15.1216 12.2082 14.623 13.144 13.89 13.879L13.885 13.884L13.88 13.888C12.8951 14.8706 11.5604 15.4221 10.1692 15.4214C8.77792 15.4206 7.44385 14.8677 6.46 13.884Z" fill="white"/>
</svg>
