<?xml version="1.0" encoding="utf-8"?><!-- Uploaded to: SVG Repo, www.svgrepo.com, Generator: SVG Repo Mixer Tools -->
<svg version="1.1" id="Uploaded to svgrepo.com" xmlns="http://www.w3.org/2000/svg" xmlns:xlink="http://www.w3.org/1999/xlink" 
	 width="800px" height="800px" viewBox="0 0 32 32" xml:space="preserve">
<style type="text/css">
	.feather_een{fill:#0B1719;}
</style>
<path class="feather_een" d="M27.713,28.575l-0.338-1.555c-0.271-1.487-1.336-2.68-2.754-3.104l-5.527-2.014L19,21.869v-2.471
	c3.158-1.343,5-4.815,5-8.899V5c0-2.209-1.791-4-4-4h-8C9.791,1,8,2.791,8,5v5.5c0,4.084,1.842,7.556,5,8.899v2.476l-5.59,2.03
	c-1.447,0.435-2.515,1.628-2.785,3.116L4.33,28.642C4.106,29.87,5.049,31,6.297,31h19.461C27.034,31,27.984,29.822,27.713,28.575z
	 M9,5c0-1.657,1.343-3,3-3h8c1.657,0,3,1.343,3,3v3.543l-1.855-2.385C20.577,5.427,19.703,5,18.777,5h-5.555
	c-0.926,0-1.8,0.427-2.368,1.158L9,8.543V5z M9,10.5v-0.328l2.644-3.399C12.023,6.285,12.606,6,13.223,6h5.554
	c0.617,0,1.2,0.285,1.579,0.772L23,10.172V10.5c0,5.005-2.878,8.5-7,8.5S9,15.505,9,10.5z M18,19.741v2.742
	c-1.208,0.799-2.792,0.799-4,0v-2.742C14.627,19.905,15.291,20,16,20S17.373,19.905,18,19.741z M25.759,30H6.297
	c-0.624,0-1.096-0.565-0.984-1.179l0.295-1.622c0.203-1.115,1.004-2.01,2.116-2.345l5.242-1.903
	c1.734,1.509,4.334,1.508,6.073-0.005l5.267,1.918c1.083,0.325,1.882,1.22,2.088,2.351l0.342,1.572
	C26.872,29.411,26.397,30,25.759,30z M18,13c0-0.552,0.448-1,1-1s1,0.448,1,1c0,0.552-0.448,1-1,1S18,13.552,18,13z M14,13
	c0,0.552-0.448,1-1,1s-1-0.448-1-1c0-0.552,0.448-1,1-1S14,12.448,14,13z M23,26h-3c-0.552,0-1,0.448-1,1v1c0,0.552,0.448,1,1,1h3
	c0.552,0,1-0.448,1-1v-1C24,26.448,23.552,26,23,26z M23,28h-3v-1h3V28z"/>
</svg>