<?xml version="1.0" ?>
<!-- Uploaded to: SVG Repo, www.svgrepo.com, Generator: SVG Repo Mixer Tools -->
<svg fill="#000000" width="800px" height="800px" viewBox="0 0 100 100" version="1.1" xml:space="preserve" xmlns="http://www.w3.org/2000/svg" xmlns:xlink="http://www.w3.org/1999/xlink">
<g id="news_updates"/>
<g id="newspaper"/>
<g id="fake_news"/>
<g id="secret_document"/>
<g id="interview"/>
<g id="reporter"/>
<g id="id_card">
<g>
<path d="M78,24H56.9c-0.4-2.8-2.4-5-5.1-5.8c1.7-2,4.3-3.2,7-3.2h16.7c3,0,5.5-2.5,5.5-5.5S78.5,4,75.5,4H50H24.5    c-3,0-5.5,2.5-5.5,5.5s2.5,5.5,5.5,5.5h16.7c2.7,0,5.3,1.2,7,3.2c-2.7,0.7-4.7,3-5.1,5.8H22c-1.7,0-3,1.3-3,3v66c0,1.7,1.3,3,3,3    h56c1.7,0,3-1.3,3-3V27C81,25.3,79.7,24,78,24z M54.9,24h-2.1c-0.3-0.8-1-1.5-1.8-1.8v-2.1C53,20.5,54.5,22,54.9,24z M41.2,13    H24.5c-1.9,0-3.5-1.6-3.5-3.5S22.6,6,24.5,6H50h25.5C77.4,6,79,7.6,79,9.5S77.4,13,75.5,13H58.8c-3.4,0-6.7,1.6-8.8,4.3    C47.9,14.6,44.6,13,41.2,13z M49,20.1v2.1c-0.8,0.3-1.5,1-1.8,1.8h-2.1C45.5,22,47,20.5,49,20.1z M79,93c0,0.6-0.4,1-1,1H22    c-0.6,0-1-0.4-1-1V27c0-0.6,0.4-1,1-1h56c0.6,0,1,0.4,1,1V93z"/>
<path d="M76,28H24c-0.6,0-1,0.4-1,1v62c0,0.6,0.4,1,1,1h52c0.6,0,1-0.4,1-1V29C77,28.4,76.6,28,76,28z M75,90H25V30h50V90z"/>
<path d="M37,65h26c1.7,0,3-1.3,3-3V36c0-1.7-1.3-3-3-3H37c-1.7,0-3,1.3-3,3v26C34,63.7,35.3,65,37,65z M50,51c-3.3,0-6-2.7-6-6    s2.7-6,6-6s6,2.7,6,6S53.3,51,50,51z M50,53c1.1,0,2.1-0.2,3-0.6c5,1.3,8.5,5.5,8.9,10.6H38c0.4-5.1,4-9.3,8.9-10.6    C47.9,52.8,48.9,53,50,53z M36,36c0-0.6,0.4-1,1-1h26c0.6,0,1,0.4,1,1v26c0,0.2,0,0.3-0.1,0.4c-0.6-5.1-3.9-9.5-8.7-11.4    c1.7-1.5,2.8-3.6,2.8-6c0-4.4-3.6-8-8-8s-8,3.6-8,8c0,2.4,1.1,4.6,2.8,6c-4.8,1.9-8.1,6.3-8.7,11.4C36,62.3,36,62.2,36,62V36z"/>
<path d="M30,72h40c0.6,0,1-0.4,1-1s-0.4-1-1-1H30c-0.6,0-1,0.4-1,1S29.4,72,30,72z"/>
<path d="M30,77h40c0.6,0,1-0.4,1-1s-0.4-1-1-1H30c-0.6,0-1,0.4-1,1S29.4,77,30,77z"/>
<path d="M30,82h40c0.6,0,1-0.4,1-1s-0.4-1-1-1H30c-0.6,0-1,0.4-1,1S29.4,82,30,82z"/>
<path d="M30,87h40c0.6,0,1-0.4,1-1s-0.4-1-1-1H30c-0.6,0-1,0.4-1,1S29.4,87,30,87z"/>
</g>
</g>
<g id="camera"/>
<g id="television"/>
<g id="crime_scane"/>
<g id="note"/>
<g id="recorder"/>
<g id="station_television"/>
<g id="file_storage"/>
<g id="news_anchor"/>
<g id="trending_news"/>
<g id="world_news"/>
<g id="document"/>
<g id="radio"/>
<g id="video_recorder"/>
</svg>